<?xml version="1.0" encoding="UTF-8"?>
<svg width="260px" height="249px" viewBox="0 0 260 249" version="1.1" xmlns="http://www.w3.org/2000/svg" xmlns:xlink="http://www.w3.org/1999/xlink">
    <g stroke="none" stroke-width="1" fill="none" fill-rule="evenodd">
        <g>
            <line x1="129.5" y1="47.5" x2="129.5" y2="108.5" stroke="#BABABA" stroke-linecap="square"></line>
            <path d="M27.882134,41.6769926 L27.9357878,41.7548694 L32.4357878,49.7548694 C32.5711697,49.9955483 32.4858096,50.3004059 32.2451306,50.4357878 C32.0311938,50.5561272 31.7665479,50.5020533 31.6152959,50.3195146 L31.5642122,50.2451306 L28,43.908 L28,248.5 C28,248.776142 27.7761424,249 27.5,249 C27.2545401,249 27.0503916,248.823125 27.0080557,248.589876 L27,248.5 L27,43.908 L23.4357878,50.2451306 C23.3154483,50.4590675 23.0612021,50.5502832 22.8371522,50.4728292 L22.7548694,50.4357878 C22.5409325,50.3154483 22.4497168,50.0612021 22.5271708,49.8371522 L22.5642122,49.7548694 L27.0642122,41.7548694 C27.2394349,41.4433624 27.6651608,41.4174034 27.882134,41.6769926 Z" fill="#BABABA" fill-rule="nonzero"></path>
            <path d="M251.162848,219.527171 L251.245131,219.564212 L259.245131,224.064212 C259.556638,224.239435 259.582597,224.665161 259.323007,224.882134 L259.245131,224.935788 L251.245131,229.435788 C251.004452,229.57117 250.699594,229.48581 250.564212,229.245131 C250.443873,229.031194 250.497947,228.766548 250.680485,228.615296 L250.754869,228.564212 L257.091,225 L0.5,225 C0.223857625,225 0,224.776142 0,224.5 C0,224.25454 0.176875161,224.050392 0.410124368,224.008056 L0.5,224 L257.091,224 L250.754869,220.435788 C250.540933,220.315448 250.449717,220.061202 250.527171,219.837152 L250.564212,219.754869 C250.684552,219.540933 250.938798,219.449717 251.162848,219.527171 Z" fill="#BABABA" fill-rule="nonzero"></path>
            <line x1="130.5" y1="224.5" x2="130.5" y2="118.5" stroke="#BABABA" stroke-linecap="round" stroke-linejoin="round" stroke-dasharray="4"></line>
            <text font-size="12" font-weight="normal" fill="#333333">
                <tspan x="127" y="243">x₀</tspan>
            </text>
            <text font-size="12" font-weight="normal" fill="#333333">
                <tspan x="229" y="244">1</tspan>
            </text>
            <path d="M28,223.491694 C73.1159446,223.491694 103.308615,119 129.847406,119 C156.386197,119 183.588457,224.491694 228.704402,224.491694" stroke="#333333" stroke-width="2" stroke-linecap="round" stroke-linejoin="round"></path>
            <text font-size="11" font-weight="normal" line-spacing="13" fill="#636363">
                <tspan x="77" y="11.6994171">As α and β increase, the Beta </tspan>
                <tspan x="77" y="24.6994171">distribution approaches a normal </tspan>
                <tspan x="77" y="37.6994171">curve centered at 0.5.</tspan>
            </text>
        </g>
    </g>
</svg>