<?xml version="1.0" encoding="UTF-8"?>
<svg width="264px" height="272px" viewBox="0 0 264 272" version="1.1" xmlns="http://www.w3.org/2000/svg" xmlns:xlink="http://www.w3.org/1999/xlink">
    <g stroke="none" stroke-width="1" fill="none" fill-rule="evenodd">
        <g>
            <text font-size="11" font-weight="normal" line-spacing="13" fill="#636363">
                <tspan x="19" y="11">Typical U-shaped form of the beta </tspan>
                <tspan x="19" y="24">distribution with α &lt; 1, β &lt; 1, and α= β.</tspan>
            </text>
            <path d="M26.882134,64.6769926 L26.9357878,64.7548694 L31.4357878,72.7548694 C31.5711697,72.9955483 31.4858096,73.3004059 31.2451306,73.4357878 C31.0311938,73.5561272 30.7665479,73.5020533 30.6152959,73.3195146 L30.5642122,73.2451306 L27,66.908 L27,271.5 C27,271.776142 26.7761424,272 26.5,272 C26.2545401,272 26.0503916,271.823125 26.0080557,271.589876 L26,271.5 L26,66.908 L22.4357878,73.2451306 C22.3154483,73.4590675 22.0612021,73.5502832 21.8371522,73.4728292 L21.7548694,73.4357878 C21.5409325,73.3154483 21.4497168,73.0612021 21.5271708,72.8371522 L21.5642122,72.7548694 L26.0642122,64.7548694 C26.2394349,64.4433624 26.6651608,64.4174034 26.882134,64.6769926 Z" fill="#BABABA" fill-rule="nonzero"></path>
            <path d="M255.162848,245.527171 L255.245131,245.564212 L263.245131,250.064212 C263.556638,250.239435 263.582597,250.665161 263.323007,250.882134 L263.245131,250.935788 L255.245131,255.435788 C255.004452,255.57117 254.699594,255.48581 254.564212,255.245131 C254.443873,255.031194 254.497947,254.766548 254.680485,254.615296 L254.754869,254.564212 L261.091,251 L0.5,251 C0.223857625,251 0,250.776142 0,250.5 C0,250.25454 0.176875161,250.050392 0.410124368,250.008056 L0.5,250 L261.091,250 L254.754869,246.435788 C254.540933,246.315448 254.449717,246.061202 254.527171,245.837152 L254.564212,245.754869 C254.684552,245.540933 254.938798,245.449717 255.162848,245.527171 Z" fill="#BABABA" fill-rule="nonzero"></path>
            <line x1="242.5" y1="245.5" x2="242.5" y2="65.5" stroke="#BABABA" stroke-linecap="round" stroke-linejoin="round" stroke-dasharray="4"></line>
            <line x1="145.5" y1="247.5" x2="145.5" y2="229.5" stroke="#BABABA" stroke-linecap="round" stroke-linejoin="round" stroke-dasharray="4"></line>
            <path d="M47,79 C47,218 81,230 143,230 C203.666667,230 234,212 234,79" stroke="#333333" stroke-width="2" stroke-linecap="round" stroke-linejoin="round"></path>
            <text font-size="12" font-weight="normal" fill="#333333">
                <tspan x="142" y="266">x₀</tspan>
            </text>
            <text font-size="12" font-weight="normal" fill="#333333">
                <tspan x="240" y="267">1</tspan>
            </text>
            <line x1="47.5" y1="33.5" x2="47.5" y2="65.5" stroke="#BABABA" stroke-linecap="round" stroke-linejoin="round"></line>
        </g>
    </g>
</svg>