<?xml version="1.0" encoding="UTF-8"?>
<svg width="344px" height="237px" viewBox="0 0 344 237" version="1.1" xmlns="http://www.w3.org/2000/svg" xmlns:xlink="http://www.w3.org/1999/xlink">
    <g stroke="none" stroke-width="1" fill="none" fill-rule="evenodd">
        <g>
            <path d="M221.162848,115.527171 L221.245131,115.564212 L229.245131,120.064212 C229.556638,120.239435 229.582597,120.665161 229.323007,120.882134 L229.245131,120.935788 L221.245131,125.435788 C221.004452,125.57117 220.699594,125.48581 220.564212,125.245131 C220.443873,125.031194 220.497947,124.766548 220.680485,124.615296 L220.754869,124.564212 L227.091,121 L212,121 C211.723858,121 211.5,120.776142 211.5,120.5 C211.5,120.25454 211.676875,120.050392 211.910124,120.008056 L212,120 L227.091,120 L220.754869,116.435788 C220.540933,116.315448 220.449717,116.061202 220.527171,115.837152 L220.564212,115.754869 C220.684552,115.540933 220.938798,115.449717 221.162848,115.527171 Z" fill="#BABABA" fill-rule="nonzero"></path>
            <line x1="178.5" y1="214.5" x2="178.5" y2="60.5" stroke="#999999" stroke-linecap="round" stroke-linejoin="round" stroke-dasharray="4"></line>
            <text font-size="12" font-weight="normal" fill="#636363">
                <tspan x="59" y="12">A symmetric bell-shaped curve centered </tspan>
                <tspan x="59" y="28">at the mean μ with spread determined by </tspan>
                <tspan x="59" y="44">the standard deviation 𝜎.</tspan>
            </text>
            <text font-size="12" font-weight="normal" fill="#333333">
                <tspan x="175" y="233">μ</tspan>
            </text>
            <path d="M335.162848,212.527171 L335.245131,212.564212 L343.245131,217.064212 C343.556638,217.239435 343.582597,217.665161 343.323007,217.882134 L343.245131,217.935788 L335.245131,222.435788 C335.004452,222.57117 334.699594,222.48581 334.564212,222.245131 C334.443873,222.031194 334.497947,221.766548 334.680485,221.615296 L334.754869,221.564212 L341.091,218 L0.5,218 C0.223857625,218 0,217.776142 0,217.5 C0,217.25454 0.176875161,217.050392 0.410124368,217.008056 L0.5,217 L341.091,217 L334.754869,213.435788 C334.540933,213.315448 334.449717,213.061202 334.527171,212.837152 L334.564212,212.754869 C334.684552,212.540933 334.938798,212.449717 335.162848,212.527171 Z" fill="#BABABA" fill-rule="nonzero"></path>
            <line x1="108.5" y1="57.5" x2="108.5" y2="123.5" stroke="#BABABA" stroke-linecap="round" stroke-linejoin="round"></line>
            <path d="M26,217 C94,217 138,58 178,58 C218,58 259,217 327,217" stroke="#333333" stroke-width="2" stroke-linecap="round" stroke-linejoin="round"></path>
            <text font-size="12" font-weight="normal" fill="#333333">
                <tspan x="202" y="124">𝜎</tspan>
            </text>
            <path d="M188.435788,115.754869 C188.556127,115.968806 188.502053,116.233452 188.319515,116.384704 L188.245131,116.435788 L181.908,120 L198,120 C198.276142,120 198.5,120.223858 198.5,120.5 C198.5,120.74546 198.323125,120.949608 198.089876,120.991944 L198,121 L181.908,121 L188.245131,124.564212 C188.459067,124.684552 188.550283,124.938798 188.472829,125.162848 L188.435788,125.245131 C188.315448,125.459067 188.061202,125.550283 187.837152,125.472829 L187.754869,125.435788 L179.754869,120.935788 C179.443362,120.760565 179.417403,120.334839 179.676993,120.117866 L179.754869,120.064212 L187.754869,115.564212 C187.995548,115.42883 188.300406,115.51419 188.435788,115.754869 Z" fill="#BABABA" fill-rule="nonzero"></path>
        </g>
    </g>
</svg>