<?xml version="1.0" encoding="UTF-8"?>
<svg width="330px" height="252px" viewBox="0 0 330 252" version="1.1" xmlns="http://www.w3.org/2000/svg" xmlns:xlink="http://www.w3.org/1999/xlink">
    <g stroke="none" stroke-width="1" fill="none" fill-rule="evenodd">
        <path d="M40,4.98013557 L40.435788,5.75486938 L44.935788,13.7548694 L45.180918,14.1906571 L44.309343,14.6809184 L44.064212,14.2451306 L40.499,7.906 L40.5,190 L39.5,190 L39.499,7.91 L35.935788,14.2451306 L35.690657,14.6809184 L34.819082,14.1906571 L35.064212,13.7548694 L39.564212,5.75486938 L40,4.98013557 Z" fill="#BABABA" fill-rule="nonzero"></path>
        <path d="M310.809343,164.819082 L311.245131,165.064212 L319.245131,169.564212 L320.019864,170 L319.245131,170.435788 L311.245131,174.935788 L310.809343,175.180918 L310.319082,174.309343 L310.754869,174.064212 L317.093,170.499 L311,170.5 L16,170.5 L15.5,170.5 L15.5,169.5 L16,169.5 L311,169.5 L317.089,169.499 L310.754869,165.935788 L310.319082,165.690657 L310.809343,164.819082 Z" fill="#BABABA" fill-rule="nonzero"></path>
        <text font-size="14" font-weight="normal" fill="#BABABA">
            <tspan x="21" y="14">y</tspan>
        </text>
        <text font-size="14" font-weight="normal" fill="#BABABA">
            <tspan x="312.5" y="190">t</tspan>
        </text>
        <path d="M90,170 L90,95 C112,64 128,55 150,55 C172,55 190,110 205,128 C213,137 218,140 228,140 C245,140 258,125 270,103 L270,170 Z" fill="#e6e6e6"></path>
        <rect fill="#D4D4D4" style="mix-blend-mode: multiply;" x="90" y="140" width="180" height="30"></rect>
        <rect stroke="#BABABA" x="90.5" y="55.5" width="179" height="114"></rect>
        <line x1="40.5" y1="55.5" x2="90.5" y2="55.5" stroke="#BABABA" stroke-linecap="round" stroke-linejoin="round" stroke-dasharray="4"></line>
        <line x1="40.5" y1="140.5" x2="90.5" y2="140.5" stroke="#BABABA" stroke-linecap="round" stroke-linejoin="round" stroke-dasharray="4"></line>
        <path d="M55,162 C72,132 80,110 90,95 C112,64 128,55 150,55 C172,55 190,110 205,128 C213,137 218,140 228,140 C245,140 258,125 272,101 C282,86 292,78 300,72" stroke="#333333" stroke-width="2" stroke-linecap="round" stroke-linejoin="round"></path>
        <circle fill="#333333" cx="90" cy="170" r="2.5"></circle>
        <circle fill="#333333" cx="270" cy="170" r="2.5"></circle>
        <circle fill="#333333" cx="150" cy="55" r="2.5"></circle>
        <circle fill="#333333" cx="228" cy="140" r="2.5"></circle>
        <text font-size="13" font-weight="normal" fill="#333333">
            <tspan x="24" y="59">M</tspan>
        </text>
        <text font-size="13" font-weight="normal" fill="#333333">
            <tspan x="25" y="145">m</tspan>
        </text>
        <text font-size="13" font-weight="normal" fill="#333333">
            <tspan x="86" y="189">a</tspan>
        </text>
        <text font-size="13" font-weight="normal" fill="#333333">
            <tspan x="266" y="189">b</tspan>
        </text>
        <text font-size="13" font-weight="normal" fill="#333333">
            <tspan x="276" y="66">y=f(t)</tspan>
        </text>
        <line x1="150.5" y1="178" x2="150.5" y2="200.5" stroke="#BABABA" stroke-linecap="round" stroke-linejoin="round"></line>
        <text font-size="11" font-weight="normal" line-spacing="13" fill="#636363">
            <tspan x="70" y="214">Over [a, b] the region under the graph</tspan>
            <tspan x="70" y="227">contains the rectangle of height m and</tspan>
            <tspan x="70" y="240">is contained in the one of height M.</tspan>
        </text>
    </g>
</svg>
