<?xml version="1.0" encoding="UTF-8"?>
<svg width="330px" height="282px" viewBox="0 0 330 282" version="1.1" xmlns="http://www.w3.org/2000/svg">
    <title>Group 43</title>
    <g stroke="none" stroke-width="1" fill="none" fill-rule="evenodd">

        <text font-size="11" font-weight="normal" line-spacing="13" fill="#636060">
            <tspan x="24" y="11">The Schwarz lantern on a cylinder: m bands of</tspan>
            <tspan x="24" y="24">n points each, consecutive rings offset by half</tspan>
            <tspan x="24" y="37">a step. Every vertex lies on the cylinder, yet</tspan>
            <tspan x="24" y="50">the total area has no single limit.</tspan>
        </text>
        <path d="M99,82 A66,21 0 0 0 231,82" stroke="#beb8b7" stroke-width="1" fill="none" stroke-linecap="round" stroke-linejoin="round" stroke-dasharray="4"></path>
        <path d="M99,82 A66,21 0 0 1 231,82" stroke="#beb8b7" stroke-width="1" fill="none" stroke-linecap="round" stroke-linejoin="round"></path>
        <path d="M99,240 A66,21 0 0 0 231,240" stroke="#beb8b7" stroke-width="1" fill="none" stroke-linecap="round" stroke-linejoin="round" stroke-dasharray="4"></path>
        <path d="M99,240 A66,21 0 0 1 231,240" stroke="#beb8b7" stroke-width="1" fill="none" stroke-linecap="round" stroke-linejoin="round"></path>
        <line x1="99" y1="82" x2="99" y2="240" stroke="#beb8b7" stroke-width="1" stroke-linecap="round"></line>
        <line x1="231" y1="82" x2="231" y2="240" stroke="#beb8b7" stroke-width="1" stroke-linecap="round"></line>
        <line x1="99" y1="82" x2="111.6" y2="69.66" stroke="#979797" stroke-width="1" stroke-linecap="round"></line>
        <line x1="111.6" y1="69.66" x2="144.6" y2="62.03" stroke="#979797" stroke-width="1" stroke-linecap="round"></line>
        <line x1="144.6" y1="62.03" x2="185.4" y2="62.03" stroke="#979797" stroke-width="1" stroke-linecap="round"></line>
        <line x1="185.4" y1="62.03" x2="218.4" y2="69.66" stroke="#979797" stroke-width="1" stroke-linecap="round"></line>
        <line x1="218.4" y1="69.66" x2="231" y2="82" stroke="#979797" stroke-width="1" stroke-linecap="round"></line>
        <line x1="102.23" y1="107.11" x2="126.21" y2="96.61" stroke="#979797" stroke-width="1" stroke-linecap="round"></line>
        <line x1="126.21" y1="96.61" x2="165" y2="92.6" stroke="#979797" stroke-width="1" stroke-linecap="round"></line>
        <line x1="165" y1="92.6" x2="203.79" y2="96.61" stroke="#979797" stroke-width="1" stroke-linecap="round"></line>
        <line x1="203.79" y1="96.61" x2="227.77" y2="107.11" stroke="#979797" stroke-width="1" stroke-linecap="round"></line>
        <line x1="227.77" y1="107.11" x2="227.77" y2="120.09" stroke="#979797" stroke-width="1" stroke-linecap="round"></line>
        <line x1="99" y1="145.2" x2="111.6" y2="132.86" stroke="#979797" stroke-width="1" stroke-linecap="round"></line>
        <line x1="111.6" y1="132.86" x2="144.6" y2="125.23" stroke="#979797" stroke-width="1" stroke-linecap="round"></line>
        <line x1="144.6" y1="125.23" x2="185.4" y2="125.23" stroke="#979797" stroke-width="1" stroke-linecap="round"></line>
        <line x1="185.4" y1="125.23" x2="218.4" y2="132.86" stroke="#979797" stroke-width="1" stroke-linecap="round"></line>
        <line x1="218.4" y1="132.86" x2="231" y2="145.2" stroke="#979797" stroke-width="1" stroke-linecap="round"></line>
        <line x1="102.23" y1="170.31" x2="126.21" y2="159.81" stroke="#979797" stroke-width="1" stroke-linecap="round"></line>
        <line x1="126.21" y1="159.81" x2="165" y2="155.8" stroke="#979797" stroke-width="1" stroke-linecap="round"></line>
        <line x1="165" y1="155.8" x2="203.79" y2="159.81" stroke="#979797" stroke-width="1" stroke-linecap="round"></line>
        <line x1="203.79" y1="159.81" x2="227.77" y2="170.31" stroke="#979797" stroke-width="1" stroke-linecap="round"></line>
        <line x1="227.77" y1="170.31" x2="227.77" y2="183.29" stroke="#979797" stroke-width="1" stroke-linecap="round"></line>
        <line x1="99" y1="208.4" x2="111.6" y2="196.06" stroke="#979797" stroke-width="1" stroke-linecap="round"></line>
        <line x1="111.6" y1="196.06" x2="144.6" y2="188.43" stroke="#979797" stroke-width="1" stroke-linecap="round"></line>
        <line x1="144.6" y1="188.43" x2="185.4" y2="188.43" stroke="#979797" stroke-width="1" stroke-linecap="round"></line>
        <line x1="185.4" y1="188.43" x2="218.4" y2="196.06" stroke="#979797" stroke-width="1" stroke-linecap="round"></line>
        <line x1="218.4" y1="196.06" x2="231" y2="208.4" stroke="#979797" stroke-width="1" stroke-linecap="round"></line>
        <line x1="102.23" y1="233.51" x2="126.21" y2="223.01" stroke="#979797" stroke-width="1" stroke-linecap="round"></line>
        <line x1="126.21" y1="223.01" x2="165" y2="219" stroke="#979797" stroke-width="1" stroke-linecap="round"></line>
        <line x1="165" y1="219" x2="203.79" y2="223.01" stroke="#979797" stroke-width="1" stroke-linecap="round"></line>
        <line x1="203.79" y1="223.01" x2="227.77" y2="233.51" stroke="#979797" stroke-width="1" stroke-linecap="round"></line>
        <line x1="227.77" y1="233.51" x2="227.77" y2="246.49" stroke="#979797" stroke-width="1" stroke-linecap="round"></line>
        <line x1="231" y1="82" x2="227.77" y2="107.11" stroke="#979797" stroke-width="1" stroke-linecap="round"></line>
        <line x1="99" y1="82" x2="102.23" y2="107.11" stroke="#979797" stroke-width="1" stroke-linecap="round"></line>
        <line x1="111.6" y1="69.66" x2="102.23" y2="107.11" stroke="#979797" stroke-width="1" stroke-linecap="round"></line>
        <line x1="111.6" y1="69.66" x2="126.21" y2="96.61" stroke="#979797" stroke-width="1" stroke-linecap="round"></line>
        <line x1="144.6" y1="62.03" x2="126.21" y2="96.61" stroke="#979797" stroke-width="1" stroke-linecap="round"></line>
        <line x1="144.6" y1="62.03" x2="165" y2="92.6" stroke="#979797" stroke-width="1" stroke-linecap="round"></line>
        <line x1="185.4" y1="62.03" x2="165" y2="92.6" stroke="#979797" stroke-width="1" stroke-linecap="round"></line>
        <line x1="185.4" y1="62.03" x2="203.79" y2="96.61" stroke="#979797" stroke-width="1" stroke-linecap="round"></line>
        <line x1="218.4" y1="69.66" x2="203.79" y2="96.61" stroke="#979797" stroke-width="1" stroke-linecap="round"></line>
        <line x1="218.4" y1="69.66" x2="227.77" y2="107.11" stroke="#979797" stroke-width="1" stroke-linecap="round"></line>
        <line x1="102.23" y1="107.11" x2="99" y2="145.2" stroke="#979797" stroke-width="1" stroke-linecap="round"></line>
        <line x1="102.23" y1="107.11" x2="111.6" y2="132.86" stroke="#979797" stroke-width="1" stroke-linecap="round"></line>
        <line x1="126.21" y1="96.61" x2="111.6" y2="132.86" stroke="#979797" stroke-width="1" stroke-linecap="round"></line>
        <line x1="126.21" y1="96.61" x2="144.6" y2="125.23" stroke="#979797" stroke-width="1" stroke-linecap="round"></line>
        <line x1="165" y1="92.6" x2="144.6" y2="125.23" stroke="#979797" stroke-width="1" stroke-linecap="round"></line>
        <line x1="165" y1="92.6" x2="185.4" y2="125.23" stroke="#979797" stroke-width="1" stroke-linecap="round"></line>
        <line x1="203.79" y1="96.61" x2="185.4" y2="125.23" stroke="#979797" stroke-width="1" stroke-linecap="round"></line>
        <line x1="203.79" y1="96.61" x2="218.4" y2="132.86" stroke="#979797" stroke-width="1" stroke-linecap="round"></line>
        <line x1="227.77" y1="107.11" x2="218.4" y2="132.86" stroke="#979797" stroke-width="1" stroke-linecap="round"></line>
        <line x1="227.77" y1="107.11" x2="231" y2="145.2" stroke="#979797" stroke-width="1" stroke-linecap="round"></line>
        <line x1="231" y1="145.2" x2="227.77" y2="170.31" stroke="#979797" stroke-width="1" stroke-linecap="round"></line>
        <line x1="99" y1="145.2" x2="102.23" y2="170.31" stroke="#979797" stroke-width="1" stroke-linecap="round"></line>
        <line x1="111.6" y1="132.86" x2="102.23" y2="170.31" stroke="#979797" stroke-width="1" stroke-linecap="round"></line>
        <line x1="111.6" y1="132.86" x2="126.21" y2="159.81" stroke="#979797" stroke-width="1" stroke-linecap="round"></line>
        <line x1="144.6" y1="125.23" x2="126.21" y2="159.81" stroke="#979797" stroke-width="1" stroke-linecap="round"></line>
        <line x1="144.6" y1="125.23" x2="165" y2="155.8" stroke="#979797" stroke-width="1" stroke-linecap="round"></line>
        <line x1="185.4" y1="125.23" x2="165" y2="155.8" stroke="#979797" stroke-width="1" stroke-linecap="round"></line>
        <line x1="185.4" y1="125.23" x2="203.79" y2="159.81" stroke="#979797" stroke-width="1" stroke-linecap="round"></line>
        <line x1="218.4" y1="132.86" x2="203.79" y2="159.81" stroke="#979797" stroke-width="1" stroke-linecap="round"></line>
        <line x1="218.4" y1="132.86" x2="227.77" y2="170.31" stroke="#979797" stroke-width="1" stroke-linecap="round"></line>
        <line x1="102.23" y1="170.31" x2="99" y2="208.4" stroke="#979797" stroke-width="1" stroke-linecap="round"></line>
        <line x1="102.23" y1="170.31" x2="111.6" y2="196.06" stroke="#979797" stroke-width="1" stroke-linecap="round"></line>
        <line x1="126.21" y1="159.81" x2="111.6" y2="196.06" stroke="#979797" stroke-width="1" stroke-linecap="round"></line>
        <line x1="126.21" y1="159.81" x2="144.6" y2="188.43" stroke="#979797" stroke-width="1" stroke-linecap="round"></line>
        <line x1="165" y1="155.8" x2="144.6" y2="188.43" stroke="#979797" stroke-width="1" stroke-linecap="round"></line>
        <line x1="165" y1="155.8" x2="185.4" y2="188.43" stroke="#979797" stroke-width="1" stroke-linecap="round"></line>
        <line x1="203.79" y1="159.81" x2="185.4" y2="188.43" stroke="#979797" stroke-width="1" stroke-linecap="round"></line>
        <line x1="203.79" y1="159.81" x2="218.4" y2="196.06" stroke="#979797" stroke-width="1" stroke-linecap="round"></line>
        <line x1="227.77" y1="170.31" x2="218.4" y2="196.06" stroke="#979797" stroke-width="1" stroke-linecap="round"></line>
        <line x1="227.77" y1="170.31" x2="231" y2="208.4" stroke="#979797" stroke-width="1" stroke-linecap="round"></line>
        <line x1="231" y1="208.4" x2="227.77" y2="233.51" stroke="#979797" stroke-width="1" stroke-linecap="round"></line>
        <line x1="99" y1="208.4" x2="102.23" y2="233.51" stroke="#979797" stroke-width="1" stroke-linecap="round"></line>
        <line x1="111.6" y1="196.06" x2="102.23" y2="233.51" stroke="#979797" stroke-width="1" stroke-linecap="round"></line>
        <line x1="111.6" y1="196.06" x2="126.21" y2="223.01" stroke="#979797" stroke-width="1" stroke-linecap="round"></line>
        <line x1="144.6" y1="188.43" x2="126.21" y2="223.01" stroke="#979797" stroke-width="1" stroke-linecap="round"></line>
        <line x1="144.6" y1="188.43" x2="165" y2="219" stroke="#979797" stroke-width="1" stroke-linecap="round"></line>
        <line x1="185.4" y1="188.43" x2="165" y2="219" stroke="#979797" stroke-width="1" stroke-linecap="round"></line>
        <line x1="185.4" y1="188.43" x2="203.79" y2="223.01" stroke="#979797" stroke-width="1" stroke-linecap="round"></line>
        <line x1="218.4" y1="196.06" x2="203.79" y2="223.01" stroke="#979797" stroke-width="1" stroke-linecap="round"></line>
        <line x1="218.4" y1="196.06" x2="227.77" y2="233.51" stroke="#979797" stroke-width="1" stroke-linecap="round"></line>
        <line x1="231" y1="82" x2="218.4" y2="94.34" stroke="#312f2f" stroke-width="1" stroke-linecap="round"></line>
        <line x1="218.4" y1="94.34" x2="185.4" y2="101.97" stroke="#312f2f" stroke-width="1" stroke-linecap="round"></line>
        <line x1="185.4" y1="101.97" x2="144.6" y2="101.97" stroke="#312f2f" stroke-width="1" stroke-linecap="round"></line>
        <line x1="144.6" y1="101.97" x2="111.6" y2="94.34" stroke="#312f2f" stroke-width="1" stroke-linecap="round"></line>
        <line x1="111.6" y1="94.34" x2="99" y2="82" stroke="#312f2f" stroke-width="1" stroke-linecap="round"></line>
        <line x1="227.77" y1="120.09" x2="203.79" y2="130.59" stroke="#312f2f" stroke-width="1" stroke-linecap="round"></line>
        <line x1="203.79" y1="130.59" x2="165" y2="134.6" stroke="#312f2f" stroke-width="1" stroke-linecap="round"></line>
        <line x1="165" y1="134.6" x2="126.21" y2="130.59" stroke="#312f2f" stroke-width="1" stroke-linecap="round"></line>
        <line x1="126.21" y1="130.59" x2="102.23" y2="120.09" stroke="#312f2f" stroke-width="1" stroke-linecap="round"></line>
        <line x1="102.23" y1="120.09" x2="102.23" y2="107.11" stroke="#312f2f" stroke-width="1" stroke-linecap="round"></line>
        <line x1="231" y1="145.2" x2="218.4" y2="157.54" stroke="#312f2f" stroke-width="1" stroke-linecap="round"></line>
        <line x1="218.4" y1="157.54" x2="185.4" y2="165.17" stroke="#312f2f" stroke-width="1" stroke-linecap="round"></line>
        <line x1="185.4" y1="165.17" x2="144.6" y2="165.17" stroke="#312f2f" stroke-width="1" stroke-linecap="round"></line>
        <line x1="144.6" y1="165.17" x2="111.6" y2="157.54" stroke="#312f2f" stroke-width="1" stroke-linecap="round"></line>
        <line x1="111.6" y1="157.54" x2="99" y2="145.2" stroke="#312f2f" stroke-width="1" stroke-linecap="round"></line>
        <line x1="227.77" y1="183.29" x2="203.79" y2="193.79" stroke="#312f2f" stroke-width="1" stroke-linecap="round"></line>
        <line x1="203.79" y1="193.79" x2="165" y2="197.8" stroke="#312f2f" stroke-width="1" stroke-linecap="round"></line>
        <line x1="165" y1="197.8" x2="126.21" y2="193.79" stroke="#312f2f" stroke-width="1" stroke-linecap="round"></line>
        <line x1="126.21" y1="193.79" x2="102.23" y2="183.29" stroke="#312f2f" stroke-width="1" stroke-linecap="round"></line>
        <line x1="102.23" y1="183.29" x2="102.23" y2="170.31" stroke="#312f2f" stroke-width="1" stroke-linecap="round"></line>
        <line x1="231" y1="208.4" x2="218.4" y2="220.74" stroke="#312f2f" stroke-width="1" stroke-linecap="round"></line>
        <line x1="218.4" y1="220.74" x2="185.4" y2="228.37" stroke="#312f2f" stroke-width="1" stroke-linecap="round"></line>
        <line x1="185.4" y1="228.37" x2="144.6" y2="228.37" stroke="#312f2f" stroke-width="1" stroke-linecap="round"></line>
        <line x1="144.6" y1="228.37" x2="111.6" y2="220.74" stroke="#312f2f" stroke-width="1" stroke-linecap="round"></line>
        <line x1="111.6" y1="220.74" x2="99" y2="208.4" stroke="#312f2f" stroke-width="1" stroke-linecap="round"></line>
        <line x1="227.77" y1="246.49" x2="203.79" y2="256.99" stroke="#312f2f" stroke-width="1" stroke-linecap="round"></line>
        <line x1="203.79" y1="256.99" x2="165" y2="261" stroke="#312f2f" stroke-width="1" stroke-linecap="round"></line>
        <line x1="165" y1="261" x2="126.21" y2="256.99" stroke="#312f2f" stroke-width="1" stroke-linecap="round"></line>
        <line x1="126.21" y1="256.99" x2="102.23" y2="246.49" stroke="#312f2f" stroke-width="1" stroke-linecap="round"></line>
        <line x1="102.23" y1="246.49" x2="102.23" y2="233.51" stroke="#312f2f" stroke-width="1" stroke-linecap="round"></line>
        <line x1="231" y1="82" x2="227.77" y2="120.09" stroke="#312f2f" stroke-width="1" stroke-linecap="round"></line>
        <line x1="218.4" y1="94.34" x2="227.77" y2="120.09" stroke="#312f2f" stroke-width="1" stroke-linecap="round"></line>
        <line x1="218.4" y1="94.34" x2="203.79" y2="130.59" stroke="#312f2f" stroke-width="1" stroke-linecap="round"></line>
        <line x1="185.4" y1="101.97" x2="203.79" y2="130.59" stroke="#312f2f" stroke-width="1" stroke-linecap="round"></line>
        <line x1="185.4" y1="101.97" x2="165" y2="134.6" stroke="#312f2f" stroke-width="1" stroke-linecap="round"></line>
        <line x1="144.6" y1="101.97" x2="165" y2="134.6" stroke="#312f2f" stroke-width="1" stroke-linecap="round"></line>
        <line x1="144.6" y1="101.97" x2="126.21" y2="130.59" stroke="#312f2f" stroke-width="1" stroke-linecap="round"></line>
        <line x1="111.6" y1="94.34" x2="126.21" y2="130.59" stroke="#312f2f" stroke-width="1" stroke-linecap="round"></line>
        <line x1="111.6" y1="94.34" x2="102.23" y2="120.09" stroke="#312f2f" stroke-width="1" stroke-linecap="round"></line>
        <line x1="99" y1="82" x2="102.23" y2="120.09" stroke="#312f2f" stroke-width="1" stroke-linecap="round"></line>
        <line x1="227.77" y1="120.09" x2="231" y2="145.2" stroke="#312f2f" stroke-width="1" stroke-linecap="round"></line>
        <line x1="227.77" y1="120.09" x2="218.4" y2="157.54" stroke="#312f2f" stroke-width="1" stroke-linecap="round"></line>
        <line x1="203.79" y1="130.59" x2="218.4" y2="157.54" stroke="#312f2f" stroke-width="1" stroke-linecap="round"></line>
        <line x1="203.79" y1="130.59" x2="185.4" y2="165.17" stroke="#312f2f" stroke-width="1" stroke-linecap="round"></line>
        <line x1="165" y1="134.6" x2="185.4" y2="165.17" stroke="#312f2f" stroke-width="1" stroke-linecap="round"></line>
        <line x1="165" y1="134.6" x2="144.6" y2="165.17" stroke="#312f2f" stroke-width="1" stroke-linecap="round"></line>
        <line x1="126.21" y1="130.59" x2="144.6" y2="165.17" stroke="#312f2f" stroke-width="1" stroke-linecap="round"></line>
        <line x1="126.21" y1="130.59" x2="111.6" y2="157.54" stroke="#312f2f" stroke-width="1" stroke-linecap="round"></line>
        <line x1="102.23" y1="120.09" x2="111.6" y2="157.54" stroke="#312f2f" stroke-width="1" stroke-linecap="round"></line>
        <line x1="102.23" y1="120.09" x2="99" y2="145.2" stroke="#312f2f" stroke-width="1" stroke-linecap="round"></line>
        <line x1="231" y1="145.2" x2="227.77" y2="183.29" stroke="#312f2f" stroke-width="1" stroke-linecap="round"></line>
        <line x1="218.4" y1="157.54" x2="227.77" y2="183.29" stroke="#312f2f" stroke-width="1" stroke-linecap="round"></line>
        <line x1="218.4" y1="157.54" x2="203.79" y2="193.79" stroke="#312f2f" stroke-width="1" stroke-linecap="round"></line>
        <line x1="185.4" y1="165.17" x2="203.79" y2="193.79" stroke="#312f2f" stroke-width="1" stroke-linecap="round"></line>
        <line x1="185.4" y1="165.17" x2="165" y2="197.8" stroke="#312f2f" stroke-width="1" stroke-linecap="round"></line>
        <line x1="144.6" y1="165.17" x2="165" y2="197.8" stroke="#312f2f" stroke-width="1" stroke-linecap="round"></line>
        <line x1="144.6" y1="165.17" x2="126.21" y2="193.79" stroke="#312f2f" stroke-width="1" stroke-linecap="round"></line>
        <line x1="111.6" y1="157.54" x2="126.21" y2="193.79" stroke="#312f2f" stroke-width="1" stroke-linecap="round"></line>
        <line x1="111.6" y1="157.54" x2="102.23" y2="183.29" stroke="#312f2f" stroke-width="1" stroke-linecap="round"></line>
        <line x1="99" y1="145.2" x2="102.23" y2="183.29" stroke="#312f2f" stroke-width="1" stroke-linecap="round"></line>
        <line x1="227.77" y1="183.29" x2="231" y2="208.4" stroke="#312f2f" stroke-width="1" stroke-linecap="round"></line>
        <line x1="227.77" y1="183.29" x2="218.4" y2="220.74" stroke="#312f2f" stroke-width="1" stroke-linecap="round"></line>
        <line x1="203.79" y1="193.79" x2="218.4" y2="220.74" stroke="#312f2f" stroke-width="1" stroke-linecap="round"></line>
        <line x1="203.79" y1="193.79" x2="185.4" y2="228.37" stroke="#312f2f" stroke-width="1" stroke-linecap="round"></line>
        <line x1="165" y1="197.8" x2="185.4" y2="228.37" stroke="#312f2f" stroke-width="1" stroke-linecap="round"></line>
        <line x1="165" y1="197.8" x2="144.6" y2="228.37" stroke="#312f2f" stroke-width="1" stroke-linecap="round"></line>
        <line x1="126.21" y1="193.79" x2="144.6" y2="228.37" stroke="#312f2f" stroke-width="1" stroke-linecap="round"></line>
        <line x1="126.21" y1="193.79" x2="111.6" y2="220.74" stroke="#312f2f" stroke-width="1" stroke-linecap="round"></line>
        <line x1="102.23" y1="183.29" x2="111.6" y2="220.74" stroke="#312f2f" stroke-width="1" stroke-linecap="round"></line>
        <line x1="102.23" y1="183.29" x2="99" y2="208.4" stroke="#312f2f" stroke-width="1" stroke-linecap="round"></line>
        <line x1="231" y1="208.4" x2="227.77" y2="246.49" stroke="#312f2f" stroke-width="1" stroke-linecap="round"></line>
        <line x1="218.4" y1="220.74" x2="227.77" y2="246.49" stroke="#312f2f" stroke-width="1" stroke-linecap="round"></line>
        <line x1="218.4" y1="220.74" x2="203.79" y2="256.99" stroke="#312f2f" stroke-width="1" stroke-linecap="round"></line>
        <line x1="185.4" y1="228.37" x2="203.79" y2="256.99" stroke="#312f2f" stroke-width="1" stroke-linecap="round"></line>
        <line x1="185.4" y1="228.37" x2="165" y2="261" stroke="#312f2f" stroke-width="1" stroke-linecap="round"></line>
        <line x1="144.6" y1="228.37" x2="165" y2="261" stroke="#312f2f" stroke-width="1" stroke-linecap="round"></line>
        <line x1="144.6" y1="228.37" x2="126.21" y2="256.99" stroke="#312f2f" stroke-width="1" stroke-linecap="round"></line>
        <line x1="111.6" y1="220.74" x2="126.21" y2="256.99" stroke="#312f2f" stroke-width="1" stroke-linecap="round"></line>
        <line x1="111.6" y1="220.74" x2="102.23" y2="246.49" stroke="#312f2f" stroke-width="1" stroke-linecap="round"></line>
        <line x1="99" y1="208.4" x2="102.23" y2="246.49" stroke="#312f2f" stroke-width="1" stroke-linecap="round"></line>
    </g>
</svg>
