<?xml version="1.0" encoding="UTF-8"?>
<svg width="322px" height="270px" viewBox="0 0 322 270" version="1.1" xmlns="http://www.w3.org/2000/svg" xmlns:xlink="http://www.w3.org/1999/xlink">
    <g stroke="none" stroke-width="1" fill="none" fill-rule="evenodd">
        <g transform="translate(1.000000, 0.000000)">
            <path d="M222.856356,193.989873 C227.476016,181.534962 230,168.062235 230,154 C230,90.4872538 178.512746,39 115,39 C51.4872538,39 0,90.4872538 0,154 C0,217.512746 51.4872538,269 115,269 C117.775328,269 120.527695,268.901688 123.253807,268.708356" stroke="#BABABA" stroke-linecap="round" stroke-linejoin="round"></path>
            <path d="M116,153 L141,121 C144.799231,122.681224 147.465898,124.34789 149,126 C150.534102,127.65211 152.200769,130.65211 154,135 L116,153 Z" fill="#DCDCDC"></path>
            <text font-size="11" font-weight="normal" line-spacing="13" fill="#636363">
                <tspan x="136.25752" y="208">A normalized vector lies on the unit </tspan>
                <tspan x="136.25752" y="221">sphere and has length 1. Cosine </tspan>
                <tspan x="136.25752" y="234">similarity depends only on the angle θ</tspan>
                <tspan x="144.201367" y="247">between Vx  and Vy  not on their </tspan>
                <tspan x="136.25752" y="260">magnitude</tspan>
            </text>
            <line x1="151.5" y1="152.5" x2="151.5" y2="187.5" stroke="#BABABA" stroke-linecap="round"></line>
            <path d="M184.810689,66.6052601 L184.804229,66.6863973 L183.365469,75.7517142 C183.322185,76.0244431 183.066005,76.2104442 182.793276,76.1671593 C182.55085,76.1286838 182.37695,75.9219951 182.371699,75.6849931 L182.377831,75.5949658 L183.517,68.414 L179.775129,73.140444 L115.891977,153.81041 C115.720543,154.026892 115.406073,154.063411 115.18959,153.891977 C114.997161,153.739591 114.946926,153.47419 115.058542,153.26505 L115.108023,153.18959 L178.991175,72.519625 L182.733,67.793 L176.005521,70.5486854 C175.778364,70.641693 175.522418,70.5553611 175.394858,70.3555462 L175.353348,70.2754247 C175.260341,70.0482681 175.346673,69.7923223 175.546488,69.6647624 L175.626609,69.6232525 L184.120954,66.1453066 C184.456005,66.0081223 184.810666,66.2602294 184.810689,66.6052601 Z" fill="#333333" fill-rule="nonzero"></path>
            <path d="M206.326504,104.671239 L215.484693,105.285715 C215.843792,105.309809 216.051018,105.687885 215.904339,105.996735 L215.86018,106.07226 L210.579313,113.579753 C210.420439,113.805615 210.108548,113.859919 209.882686,113.701045 C209.68192,113.559824 209.616706,113.2977 209.716275,113.082564 L209.761394,113.004419 L213.942,107.059 L208.495676,109.659132 L115.715407,153.95122 C115.466205,154.070186 115.167745,153.964609 115.04878,153.715407 C114.943032,153.493894 115.014702,153.233462 115.206956,153.094769 L115.284593,153.04878 L208.064862,108.756691 L213.513,106.155 L206.259559,105.668995 C206.01465,105.652563 205.8228,105.462418 205.796174,105.226858 L205.794154,105.136644 C205.81264,104.861122 206.050982,104.652752 206.326504,104.671239 Z" fill="#333333" fill-rule="nonzero"></path>
            <path d="M221.888313,102.547743 C221.994338,102.769123 221.922995,103.029645 221.730914,103.168579 L221.653335,103.214665 L218.045734,104.942443 C217.796681,105.061722 217.49809,104.956518 217.378812,104.707466 C217.272787,104.486085 217.34413,104.225563 217.536211,104.08663 L217.61379,104.040543 L221.22139,102.312765 C221.470443,102.193487 221.769035,102.29869 221.888313,102.547743 Z M229.103514,99.0921867 C229.209539,99.313567 229.138196,99.5740888 228.946116,99.7130223 L228.868536,99.759109 L225.260936,101.486887 C225.011883,101.606165 224.713292,101.500962 224.594013,101.251909 C224.487988,101.030529 224.559331,100.770007 224.751412,100.631074 L224.828991,100.584987 L228.436592,98.8572089 C228.685645,98.7379307 228.984236,98.8431338 229.103514,99.0921867 Z M237.324846,89.6821133 L246.483797,90.2851078 C246.842926,90.3087517 247.050626,90.6865672 246.904335,90.9956012 L246.86027,91.071182 L241.588819,98.585289 C241.430228,98.8113499 241.118406,98.8660451 240.892345,98.7074542 C240.691402,98.5664845 240.625859,98.3044434 240.725158,98.0891826 L240.77018,98.0109805 L245.531,91.224 L237.259151,90.6799531 C237.014221,90.6638277 236.822134,90.4739232 236.795212,90.2383967 L236.793078,90.148186 C236.811219,89.8726401 237.0493,89.6639723 237.324846,89.6821133 Z M236.318716,95.6366305 C236.424741,95.8580108 236.353398,96.1185326 236.161317,96.2574661 L236.083738,96.3035528 L232.476137,98.0313309 C232.227084,98.1506091 231.928493,98.045406 231.809215,97.7963531 C231.70319,97.5749728 231.774533,97.314451 231.966613,97.1755174 L232.044193,97.1294307 L235.651793,95.4016526 C235.900846,95.2823744 236.199437,95.3875776 236.318716,95.6366305 Z M243.533917,92.1810742 C243.639942,92.4024545 243.568599,92.6629764 243.376518,92.8019099 L243.298939,92.8479966 L239.691338,94.5757747 C239.442286,94.6950529 239.143694,94.5898497 239.024416,94.3407969 C238.918391,94.1194166 238.989734,93.8588947 239.181815,93.7199612 L239.259394,93.6738745 L242.866995,91.9460964 C243.116048,91.8268182 243.414639,91.9320214 243.533917,92.1810742 Z" fill="#333333" fill-rule="nonzero"></path>
            <path d="M189.938754,59.490494 C190.131191,59.64287 190.181441,59.9082685 190.069836,60.117414 L190.020358,60.1928761 L187.537248,63.328823 C187.365825,63.545315 187.051358,63.5818506 186.834866,63.4104276 C186.642429,63.2580516 186.592179,62.992653 186.703784,62.7835075 L186.753261,62.7080454 L189.236372,59.5720985 C189.407795,59.3556066 189.722262,59.319071 189.938754,59.490494 Z M194.904975,53.2186002 C195.097412,53.3709762 195.147661,53.6363748 195.036056,53.8455203 L194.986579,53.9209823 L192.503469,57.0569292 C192.332046,57.2734212 192.017579,57.3099568 191.801087,57.1385338 C191.608649,56.9861578 191.5584,56.7207592 191.670005,56.5116137 L191.719482,56.4361516 L194.202592,53.3002047 C194.374015,53.0837128 194.688483,53.0471772 194.904975,53.2186002 Z M199.871195,46.9467064 C200.063633,47.0990824 200.113882,47.364481 200.002277,47.5736265 L199.9528,47.6490886 L197.46969,50.7850354 C197.298267,51.0015274 196.983799,51.038063 196.767307,50.86664 C196.57487,50.714264 196.52462,50.4488654 196.636226,50.2397199 L196.685703,50.1642579 L199.168813,47.028311 C199.340236,46.811819 199.654703,46.7752834 199.871195,46.9467064 Z M204.837416,40.6748126 C205.029853,40.8271886 205.080103,41.0925872 204.968498,41.3017327 L204.919021,41.3771948 L202.43591,44.5131417 C202.264487,44.7296336 201.95002,44.7661692 201.733528,44.5947462 C201.541091,44.4423702 201.490841,44.1769716 201.602446,43.9678261 L201.651924,43.8923641 L204.135034,40.7564172 C204.306457,40.5399252 204.620924,40.5033896 204.837416,40.6748126 Z M209.803637,34.4029188 C209.996074,34.5552948 210.046324,34.8206934 209.934719,35.0298389 L209.885241,35.105301 L207.402131,38.2412479 C207.230708,38.4577398 206.916241,38.4942754 206.699749,38.3228524 C206.507312,38.1704764 206.457062,37.9050779 206.568667,37.6959324 L206.618144,37.6204703 L209.101255,34.4845234 C209.272678,34.2680314 209.587145,34.2314958 209.803637,34.4029188 Z M214.769857,28.131025 C214.962295,28.283401 215.012544,28.5487996 214.900939,28.7579451 L214.851462,28.8334072 L212.368352,31.9693541 C212.196929,32.185846 211.882461,32.2223817 211.66597,32.0509587 C211.473532,31.8985827 211.423283,31.6331841 211.534888,31.4240386 L211.584365,31.3485765 L214.067475,28.2126296 C214.238898,27.9961376 214.553366,27.959602 214.769857,28.131025 Z M222.810668,18.6052173 L222.804212,18.6863548 L221.365932,27.7517477 C221.322661,28.0244789 221.066491,28.2104935 220.79376,28.167223 C220.551333,28.1287604 220.377422,27.9220809 220.372158,27.6850791 L220.378285,27.5950515 L221.655206,19.5461663 C221.635673,19.5346396 221.616693,19.5216468 221.598411,19.5071711 L221.548,19.46 L214.005708,22.5491077 C213.778556,22.6421273 213.522606,22.5558089 213.395036,22.3560008 L213.353521,22.2758815 C213.260502,22.0487298 213.34682,21.7927794 213.546628,21.665209 L213.626748,21.6236948 L222.120909,18.1453002 C222.455953,18.0080982 222.810626,18.2601866 222.810668,18.6052173 Z M219.736078,21.8591313 C219.928516,22.0115073 219.978765,22.2769058 219.86716,22.4860513 L219.817683,22.5615134 L217.775457,25.1406625 L217.334572,25.6974603 C217.163149,25.9139523 216.848682,25.9504879 216.63219,25.7790649 C216.439753,25.6266889 216.389503,25.3612903 216.501108,25.1521448 L216.550586,25.0766827 L216.99147,24.5198849 L219.033696,21.9407358 C219.205119,21.7242439 219.519586,21.6877083 219.736078,21.8591313 Z" fill="#333333" fill-rule="nonzero"></path>
            <text font-size="12" font-weight="normal" fill="#333333">
                <tspan x="227" y="12">V</tspan>
            </text>
            <circle stroke="#333333" fill="#F6F6F6" cx="116.5" cy="152.5" r="3"></circle>
            <text font-size="12" font-weight="normal" fill="#333333">
                <tspan x="236" y="16">x</tspan>
            </text>
            <text font-size="12" font-weight="normal" fill="#333333">
                <tspan x="253" y="93">V</tspan>
            </text>
            <text font-size="12" font-weight="normal" fill="#333333">
                <tspan x="262" y="97">y</tspan>
            </text>
            <text font-size="12" font-weight="normal" fill="#333333">
                <tspan x="145" y="129">θ</tspan>
            </text>
        </g>
    </g>
</svg>