<?xml version="1.0" encoding="UTF-8"?>
<svg width="318px" height="252px" viewBox="0 0 318 252" version="1.1" xmlns="http://www.w3.org/2000/svg" xmlns:xlink="http://www.w3.org/1999/xlink">
    <g stroke="none" stroke-width="1" fill="none" fill-rule="evenodd">
        <g transform="translate(1.000000, 0.000000)">
            <text font-size="12" font-weight="normal" fill="#333333">
                <tspan x="91.5" y="78">u</tspan>
            </text>
            <text font-size="12" font-weight="normal" fill="#333333">
                <tspan x="289.5" y="105">v</tspan>
            </text>
            <text font-size="11" font-weight="normal" line-spacing="13" fill="#636363">
                <tspan x="114.5" y="11">The segment connecting the endpoints </tspan>
                <tspan x="114.5" y="24">of vectors u and v represents the </tspan>
                <tspan x="114.5" y="37">Euclidean distance between them.</tspan>
            </text>
            <line x1="182.5" y1="47.5" x2="182.5" y2="86.5" stroke="#BABABA" stroke-linecap="round"></line>
            <text font-size="12" font-weight="normal" fill="#BABABA">
                <tspan x="14.5" y="44">y</tspan>
            </text>
            <text font-size="12" font-weight="normal" fill="#BABABA">
                <tspan x="304.5" y="245">x</tspan>
            </text>
            <line x1="96" y1="86.5" x2="290" y2="112.5" stroke="#979797" stroke-linecap="round" stroke-linejoin="round" stroke-dasharray="4"></line>
            <path d="M95.6944658,86.9207267 L95.7086205,87.0070622 L96.4291811,96.1575153 C96.4508591,96.4328055 96.2452658,96.6735458 95.9699756,96.6952237 C95.7252732,96.714493 95.5078696,96.55419 95.4473535,96.3249841 L95.4322672,96.2360182 L94.861,88.988 L92.3255606,94.4629428 L32.4536863,223.710164 C32.3376162,223.960728 32.0404005,224.069756 31.7898365,223.953686 C31.5671129,223.850513 31.4562195,223.604212 31.515846,223.374773 L31.5463137,223.289836 L91.418188,94.0426158 L93.954,88.567 L88.056757,92.8194216 C87.8576408,92.9629601 87.5886043,92.9388602 87.4178635,92.7744063 L87.3587719,92.7062102 C87.2152334,92.507094 87.2393332,92.2380576 87.4037872,92.0673168 L87.4719832,92.0082251 L94.9177766,86.6407154 C95.2097312,86.4302518 95.6104675,86.5892941 95.6944658,86.9207267 Z" fill="#333333" fill-rule="nonzero"></path>
            <path d="M279.794055,111.335864 L279.884279,111.337328 L289.011912,112.304963 C289.369812,112.342904 289.562286,112.728699 289.403791,113.031656 L289.356748,113.10542 L283.789939,120.403409 C283.622463,120.622968 283.308708,120.665189 283.089149,120.497712 C282.893986,120.348844 282.838941,120.084398 282.946742,119.873267 L282.994846,119.796922 L287.403,114.016 L281.868056,116.40146 L32.1978236,223.959201 C31.9442137,224.068456 31.6500536,223.951433 31.5407987,223.697824 C31.4436832,223.472393 31.525355,223.214922 31.7228216,223.083756 L31.8021764,223.040799 L281.472409,115.483057 L287.008,113.098 L279.778858,112.331756 C279.534766,112.305879 279.350401,112.108468 279.332891,111.872055 L279.334355,111.781831 C279.356997,111.568251 279.51097,111.400399 279.707487,111.350042 L279.794055,111.335864 Z" fill="#333333" fill-rule="nonzero"></path>
            <path d="M31.5,34.9801356 L31.9357878,35.7548694 L36.4357878,43.7548694 L36.6809184,44.1906571 L35.8093429,44.6809184 L35.5642122,44.2451306 L32,37.908 L32,252 L31,252 L31,37.908 L27.4357878,44.2451306 L27.1906571,44.6809184 L26.3190816,44.1906571 L26.5642122,43.7548694 L31.0642122,35.7548694 L31.5,34.9801356 Z" fill="#BABABA" fill-rule="nonzero"></path>
            <path d="M304.309343,219.319082 L304.745131,219.564212 L312.745131,224.064212 L313.519864,224.5 L312.745131,224.935788 L304.745131,229.435788 L304.309343,229.680918 L303.819082,228.809343 L304.254869,228.564212 L310.591,225 L-0.5,225 L-0.5,224 L310.591,224 L304.254869,220.435788 L303.819082,220.190657 L304.309343,219.319082 Z" fill="#BABABA" fill-rule="nonzero"></path>
        </g>
    </g>
</svg>