<?xml version="1.0" encoding="UTF-8"?>
<svg width="321px" height="307px" viewBox="0 0 321 307" version="1.1" xmlns="http://www.w3.org/2000/svg" xmlns:xlink="http://www.w3.org/1999/xlink">
    <defs>
        <circle cx="148.5" cy="191.5" r="40.5"></circle>
        <mask maskContentUnits="userSpaceOnUse" maskUnits="objectBoundingBox" x="0" y="0" width="81" height="81" fill="white">
            <use xlink:href="#path-1"></use>
        </mask>
    </defs>
    <g stroke="none" stroke-width="1" fill="none" fill-rule="evenodd">
        <g transform="translate(1.000000, 0.000000)">
            <path d="M148.882134,74.6769926 L148.935788,74.7548694 L153.435788,82.7548694 C153.57117,82.9955483 153.48581,83.3004059 153.245131,83.4357878 C153.031194,83.5561272 152.766548,83.5020533 152.615296,83.3195146 L152.564212,83.2451306 L149,76.908 L149,290.5 C149,290.776142 148.776142,291 148.5,291 C148.25454,291 148.050392,290.823125 148.008056,290.589876 L148,290.5 L148,76.908 L144.435788,83.2451306 C144.315448,83.4590675 144.061202,83.5502832 143.837152,83.4728292 L143.754869,83.4357878 C143.540933,83.3154483 143.449717,83.0612021 143.527171,82.8371522 L143.564212,82.7548694 L148.064212,74.7548694 C148.239435,74.4433624 148.665161,74.4174034 148.882134,74.6769926 Z" fill="#BABABA" fill-rule="nonzero"></path>
            <path d="M304.662848,186.527171 L304.745131,186.564212 L312.745131,191.064212 C313.056638,191.239435 313.082597,191.665161 312.823007,191.882134 L312.745131,191.935788 L304.745131,196.435788 C304.504452,196.57117 304.199594,196.48581 304.064212,196.245131 C303.943873,196.031194 303.997947,195.766548 304.180485,195.615296 L304.254869,195.564212 L310.591,192 L0,192 C-0.276142375,192 -0.5,191.776142 -0.5,191.5 C-0.5,191.25454 -0.323124839,191.050392 -0.0898756324,191.008056 L0,191 L310.591,191 L304.254869,187.435788 C304.040933,187.315448 303.949717,187.061202 304.027171,186.837152 L304.064212,186.754869 C304.184552,186.540933 304.438798,186.449717 304.662848,186.527171 Z" fill="#BABABA" fill-rule="nonzero"></path>
            <text font-size="14" font-weight="normal" fill="#BABABA">
                <tspan x="130.5" y="83">y</tspan>
            </text>
            <use stroke="#979797" mask="url(#mask-2)" stroke-width="2" stroke-dasharray="4" xlink:href="#path-1"></use>
            <text font-size="14" font-weight="normal" fill="#BABABA">
                <tspan x="292.5" y="210">x</tspan>
            </text>
            <ellipse stroke="#BABABA" transform="translate(148.354616, 191.836008) rotate(-44.000000) translate(-148.354616, -191.836008) " cx="148.354616" cy="191.836008" rx="121.5" ry="41.5"></ellipse>
            <text font-size="11" font-weight="normal" line-spacing="13" fill="#636363">
                <tspan x="98" y="15.2590148">Eigenvectors maintain their direction after </tspan>
                <tspan x="98" y="28.2590148">the transformation 𝐴. Their length is scaled </tspan>
                   <tspan x="98" y="41.2590148">by the eigenvalue 𝜆.</tspan>
            </text>
            <line x1="176.5" y1="46.5" x2="176.5" y2="104.5" stroke="#BABABA" stroke-linecap="round"></line>
            <text font-size="13" font-weight="normal" fill="#333333">
                <tspan x="237" y="104">λ₁</tspan>
                <tspan x="247.556" y="104">𝐯₁</tspan>
            </text>
            <path d="M120.216381,161.644081 L120.295943,161.661256 L129.090005,164.290793 C129.354574,164.369902 129.504918,164.648507 129.425809,164.913076 C129.355489,165.148247 129.127543,165.293168 128.891942,165.266908 L128.803525,165.248879 L121.838,163.166 L126.057955,167.536609 L148.859701,191.152703 C149.051508,191.35136 149.045954,191.667894 148.847297,191.859701 C148.670713,192.030196 148.400992,192.044752 148.208522,191.906358 L148.140299,191.847297 L125.338553,168.231203 L121.119,163.861 L122.955925,170.894838 C123.017952,171.132331 122.898405,171.37455 122.683424,171.474453 L122.598501,171.504959 C122.361007,171.566986 122.118788,171.447439 122.018885,171.232458 L121.98838,171.147535 L119.66893,162.266648 C119.577441,161.916349 119.874402,161.598298 120.216381,161.644081 Z" fill="#333333" fill-rule="nonzero"></path>
            <path d="M234.350812,106.201411 L234.335035,106.281262 L231.860162,115.120096 C231.785705,115.386012 231.50978,115.54122 231.243865,115.466763 C231.007496,115.40058 230.858599,115.175211 230.880722,114.939185 L230.897198,114.850466 L232.857,107.849 L148.853553,191.853553 C148.658291,192.048816 148.341709,192.048816 148.146447,191.853553 C147.97288,191.679987 147.953595,191.410563 148.088591,191.215694 L148.146447,191.146447 L232.15,107.142 L225.149534,109.102802 C224.913165,109.168986 224.668886,109.053706 224.565227,108.84051 L224.533237,108.756135 C224.467053,108.519766 224.582333,108.275488 224.795529,108.171829 L224.879904,108.139838 L233.718738,105.664965 C234.067378,105.567346 234.390589,105.858681 234.350812,106.201411 Z" fill="#979797" fill-rule="nonzero"></path>
            <path d="M176.350812,164.201411 L176.335035,164.281262 L173.860162,173.120096 C173.785705,173.386012 173.50978,173.54122 173.243865,173.466763 C173.007496,173.40058 172.858599,173.175211 172.880722,172.939185 L172.897198,172.850466 L174.857,165.849 L148.853553,191.853553 C148.658291,192.048816 148.341709,192.048816 148.146447,191.853553 C147.97288,191.679987 147.953595,191.410563 148.088591,191.215694 L148.146447,191.146447 L174.15,165.142 L167.149534,167.102802 C166.913165,167.168986 166.668886,167.053706 166.565227,166.84051 L166.533237,166.756135 C166.467053,166.519766 166.582333,166.275488 166.795529,166.171829 L166.879904,166.139838 L175.718738,163.664965 C176.067378,163.567346 176.390589,163.858681 176.350812,164.201411 Z" fill="#333333" fill-rule="nonzero"></path>
            <text font-size="13" font-weight="normal" fill="#333333">
                <tspan x="94" y="158">λ₂</tspan>
                <tspan x="105.934" y="158">𝐯₂</tspan>
            </text>
            <text font-size="13" font-weight="normal" fill="#333333">
                <tspan x="169" y="182">𝐯₁</tspan>
            </text>
        </g>
    </g>
</svg>