<?xml version="1.0" encoding="UTF-8"?>
<svg width="200px" height="200px" viewBox="0 0 200 200" version="1.1" xmlns="http://www.w3.org/2000/svg" xmlns:xlink="http://www.w3.org/1999/xlink">
    <g stroke="none" stroke-width="1" fill="none" fill-rule="evenodd">
        <g>
            <path d="M191,0.5 C193.34721,0.5 195.47221,1.45139491 197.010408,2.98959236 C198.478687,4.45787175 199.412297,6.4608204 199.494137,8.68133746 L199.5,9 L199.5,191 C199.5,193.34721 198.548605,195.47221 197.010408,197.010408 C195.542128,198.478687 193.53918,199.412297 191.318663,199.494137 L191,199.5 L9,199.5 C6.65278981,199.5 4.52778981,198.548605 2.98959236,197.010408 C1.52131297,195.542128 0.587702848,193.53918 0.505862835,191.318663 L0.5,191 L0.5,9 C0.5,6.65278981 1.45139491,4.52778981 2.98959236,2.98959236 C4.45787175,1.52131297 6.4608204,0.587702848 8.68133746,0.505862835 L9,0.5 L191,0.5 Z M99.5,49.5 C85.6923111,49.5 73.1915626,55.152814 64.1428888,64.2928886 C55.0960245,73.4311353 49.5,86.0553894 49.5,100 C49.5,113.944611 55.0960245,126.568865 64.1428888,135.707111 C73.1915626,144.847186 85.6923111,150.5 99.5,150.5 C113.307689,150.5 125.808437,144.847186 134.857111,135.707111 C143.903975,126.568865 149.5,113.944611 149.5,100 C149.5,86.0553894 143.903975,73.4311353 134.857111,64.2928886 C125.808437,55.152814 113.307689,49.5 99.5,49.5 Z" stroke="#C9C9C9" fill="#EAEAEA"></path>
            <text font-size="12" font-weight="normal" fill="#333333">
                <tspan x="95" y="106">A</tspan>
            </text>
            <text font-size="12" font-weight="normal" fill="#333333">
                <tspan x="177" y="26">U</tspan>
            </text>
            <text font-size="12" font-weight="normal" fill="#333333">
                <tspan x="98" y="182">Aᶜ</tspan>
            </text>
        </g>
    </g>
</svg>