<?xml version="1.0" encoding="UTF-8"?>
<svg width="200px" height="200px" viewBox="0 0 200 200" version="1.1" xmlns="http://www.w3.org/2000/svg" xmlns:xlink="http://www.w3.org/1999/xlink">
    <title>Group 2</title>
    <g stroke="none" stroke-width="1" fill="none" fill-rule="evenodd">
        <g>
            <rect stroke="#C9C9C9" fill="#EAEAEA" x="0.5" y="0.5" width="199" height="199" rx="9"></rect>
            <path d="M131.5,50.5 C145.030406,50.5 157.279658,56.0400672 166.14646,64.9964332 C175.015072,73.9546272 180.5,86.3303731 180.5,100 C180.5,113.669627 175.015072,126.045373 166.14646,135.003567 C157.279658,143.959933 145.030406,149.5 131.5,149.5 C119.655071,149.5 108.791907,145.254277 100.320493,138.187478 C91.2089382,145.253949 80.3453889,149.5 68.5,149.5 C54.9695938,149.5 42.7203423,143.959933 33.8535399,135.003567 C24.9849279,126.045373 19.5,113.669627 19.5,100 C19.5,86.3303731 24.9849279,73.9546272 33.8535399,64.9964332 C42.7203423,56.0400672 54.9695938,50.5 68.5,50.5 C80.3453882,50.5 91.2089359,54.7460526 99.6804925,61.8133449 C108.791937,54.7457118 119.655088,50.5 131.5,50.5 Z" stroke="#BFBFBF" fill="#F6F6F6"></path>
            <path d="M99.8747806,62.1936256 C110.701593,71.1667079 117.5,84.7816945 117.5,100 C117.5,115.221018 110.699373,128.837821 99.998399,137.916777 C89.2993865,128.835331 82.5,115.219628 82.5,100 C82.5,84.8396291 89.2465401,71.2707162 99.8747806,62.1936256 Z" stroke="#BFBFBF" fill="#F6F6F6"></path>
            <text font-size="12" font-weight="normal" fill="#333333">
                <tspan x="58" y="102">A</tspan>
            </text>
            <text font-size="12" font-weight="normal" fill="#333333">
                <tspan x="132" y="102">B</tspan>
            </text>
            <text font-size="12" font-weight="normal" fill="#333333">
                <tspan x="177" y="26">U</tspan>
            </text>
            <text font-size="12" font-weight="normal" fill="#333333">
                <tspan x="61" y="182">(A ∪ B) = A ∩ B</tspan>

            </text>
        </g>
    </g>
</svg>