<?xml version="1.0" encoding="UTF-8"?>
<svg width="310px" height="227px" viewBox="0 0 310 227" version="1.1" xmlns="http://www.w3.org/2000/svg" xmlns:xlink="http://www.w3.org/1999/xlink">
    <g stroke="none" stroke-width="1" fill="none" fill-rule="evenodd">
        <g transform="translate(-32.000000, -85.000000)">
            <g transform="translate(32.000000, 85.000000)">
                <path d="M135.886601,41.6790816 L135.939831,41.7572488 L140.396287,49.7815868 C140.530359,50.0229979 140.443343,50.3273871 140.201932,50.4614589 C139.987344,50.580634 139.722996,50.5251225 139.572738,50.3417646 L139.52206,50.267104 L135.991,43.91 L135.959261,49.9973549 L134.999993,226.502717 C134.998492,226.778856 134.773421,227.001493 134.497283,226.999993 C134.251826,226.998659 134.048642,226.820677 134.007574,226.587201 L134.000007,226.497283 L134.959276,49.9919202 L134.992,43.906 L131.393755,50.2229285 C131.272255,50.4362081 131.017517,50.5260408 130.793891,50.4473702 L130.711811,50.4098822 C130.498531,50.2883818 130.408698,50.0336437 130.487369,49.810018 L130.524857,49.7279377 L135.068268,41.752512 C135.245181,41.4419619 135.671042,41.418317 135.886601,41.6790816 Z" fill="#BABABA" fill-rule="nonzero"></path>
                <line x1="154.5" y1="127.5" x2="284.5" y2="85.5" stroke="#BABABA" stroke-linecap="round" stroke-linejoin="round" stroke-dasharray="4"></line>
                <path d="M155.179068,126.90275 L155.195477,126.988686 L156.155269,136.117146 C156.184145,136.391775 155.984922,136.637813 155.710294,136.666689 C155.466179,136.692356 155.244655,136.537797 155.178161,136.310254 L155.160752,136.221713 L154.4,128.993 L152.010869,134.525541 L135.959031,171.698218 C135.849558,171.951734 135.555298,172.068504 135.301782,171.959031 C135.076435,171.861722 134.959133,171.618408 135.012734,171.387487 L135.040969,171.301782 L151.092807,134.129105 L153.481,128.595 L147.698351,132.999313 C147.50306,133.148013 147.233485,133.130963 147.058498,132.971034 L146.997642,132.904407 C146.848942,132.709116 146.865992,132.439541 147.025921,132.264555 L147.092548,132.203698 L154.395316,126.643162 C154.681663,126.425129 155.086424,126.573629 155.179068,126.90275 Z" fill="#333333" fill-rule="nonzero"></path>
                <line x1="267.5" y1="127.5" x2="284.5" y2="85.5" stroke="#BABABA" stroke-linecap="round" stroke-linejoin="round" stroke-dasharray="5"></line>
                <path d="M258.96682,125.102571 L259.056593,125.111692 L268.069085,126.850944 C268.422471,126.919142 268.581488,127.319888 268.397838,127.608291 L268.344701,127.677794 L262.17826,134.476691 C261.992743,134.681234 261.676537,134.696659 261.471993,134.511143 C261.290176,134.346239 261.257787,134.078074 261.383128,133.87686 L261.437541,133.804876 L266.321,128.42 L260.586068,130.33169 L135.658114,171.974342 C135.396142,172.061666 135.112982,171.920086 135.025658,171.658114 C134.948037,171.42525 135.051278,171.175645 135.25917,171.061722 L135.341886,171.025658 L260.26984,129.383007 L266.004,127.471 L258.867107,126.093575 C258.626094,126.047064 258.45916,125.83471 258.461788,125.597664 L258.470909,125.50789 C258.511606,125.297004 258.679277,125.142834 258.879361,125.109347 L258.96682,125.102571 Z" fill="#333333" fill-rule="nonzero"></path>
                <path d="M284.426708,85.2496328 C284.78873,85.2452367 285.025865,85.6100774 284.899038,85.9309527 L284.8632,86.0040324 L280.192369,93.9055093 C280.051848,94.1432242 279.745227,94.2220152 279.507512,94.0814938 C279.29621,93.956586 279.210477,93.7004389 279.292727,93.4781046 L279.331527,93.3966366 L283.031,87.137 L277.759511,90.1883796 L134.750404,172.932779 C134.511387,173.071074 134.205515,172.989421 134.067221,172.750404 C133.944293,172.537944 133.995149,172.272661 134.175838,172.119204 L134.249596,172.067221 L277.258703,89.3228212 L282.53,86.272 L275.260747,86.3610106 C275.015305,86.3639911 274.809024,86.1896078 274.763859,85.9568898 L274.754713,85.8671186 C274.751732,85.6216768 274.926116,85.4153957 275.158834,85.3702307 L275.248605,85.3610843 L284.426708,85.2496328 Z" fill="#333333" fill-rule="nonzero"></path>
                <path d="M284.162848,166.527171 L284.245131,166.564212 L292.245131,171.064212 C292.556638,171.239435 292.582597,171.665161 292.323007,171.882134 L292.245131,171.935788 L284.245131,176.435788 C284.004452,176.57117 283.699594,176.48581 283.564212,176.245131 C283.443873,176.031194 283.497947,175.766548 283.680485,175.615296 L283.754869,175.564212 L290.091,172 L0.5,172 C0.223857625,172 0,171.776142 0,171.5 C0,171.25454 0.176875161,171.050392 0.410124368,171.008056 L0.5,171 L290.091,171 L283.754869,167.435788 C283.540933,167.315448 283.449717,167.061202 283.527171,166.837152 L283.564212,166.754869 C283.684552,166.540933 283.938798,166.449717 284.162848,166.527171 Z" fill="#BABABA" fill-rule="nonzero"></path>
                <line x1="169.5" y1="166.5" x2="169.5" y2="177.5" stroke="#BABABA" stroke-linecap="round" stroke-linejoin="round"></line>
                <line x1="203.5" y1="166.5" x2="203.5" y2="177.5" stroke="#BABABA" stroke-linecap="round" stroke-linejoin="round"></line>
                <line x1="237.5" y1="166.5" x2="237.5" y2="177.5" stroke="#BABABA" stroke-linecap="round" stroke-linejoin="round"></line>
                <line x1="271.5" y1="166.5" x2="271.5" y2="177.5" stroke="#BABABA" stroke-linecap="round" stroke-linejoin="round"></line>
                <line x1="0.5" y1="166.5" x2="0.5" y2="177.5" stroke="#BABABA" stroke-linecap="round" stroke-linejoin="round"></line>
                <line x1="34.5" y1="166.5" x2="34.5" y2="177.5" stroke="#BABABA" stroke-linecap="round" stroke-linejoin="round"></line>
                <line x1="68.5" y1="166" x2="68.5" y2="177" stroke="#BABABA" stroke-linecap="round" stroke-linejoin="round"></line>
                <line x1="102.5" y1="166.5" x2="102.5" y2="177.5" stroke="#BABABA" stroke-linecap="round" stroke-linejoin="round"></line>
                <line x1="134.5" y1="98" x2="134.5" y2="109" stroke="#BABABA" stroke-linecap="round" stroke-linejoin="round" transform="translate(134.500000, 103.500000) rotate(90.000000) translate(-134.500000, -103.500000) "></line>
                <line x1="134.5" y1="133" x2="134.5" y2="144" stroke="#BABABA" stroke-linecap="round" stroke-linejoin="round" transform="translate(134.500000, 138.500000) rotate(90.000000) translate(-134.500000, -138.500000) "></line>
                <line x1="134.5" y1="200" x2="134.5" y2="211" stroke="#BABABA" stroke-linecap="round" stroke-linejoin="round" transform="translate(134.500000, 205.500000) rotate(90.000000) translate(-134.500000, -205.500000) "></line>
                <line x1="135" y1="65" x2="135" y2="76" stroke="#BABABA" stroke-linecap="round" stroke-linejoin="round" transform="translate(135.000000, 70.500000) rotate(90.000000) translate(-135.000000, -70.500000) "></line>
                <line x1="184.5" y1="49.5" x2="184.5" y2="99.5" stroke="#BABABA" stroke-linecap="round" stroke-linejoin="round"></line>
                <text font-size="14" font-weight="normal" fill="#333333">
                    <tspan x="150.5" y="119">z₁</tspan>
                </text>
                <text font-size="14" font-weight="normal" fill="#333333">
                    <tspan x="267.5" y="78">z₁ + z₂ </tspan>
                </text>
                <text font-size="14" font-weight="normal" fill="#333333">
                    <tspan x="271.5" y="135">z₂ </tspan>
                </text>
                <text font-size="14" font-weight="normal" fill="#BABABA">
                    <tspan x="105.5" y="51">Im</tspan>
                </text>
                <text font-size="14" font-weight="normal" fill="#BABABA">
                    <tspan x="275.5" y="196">Re</tspan>
                </text>
                <text font-size="11" font-weight="normal" line-spacing="13" fill="#636363">
                    <tspan x="151" y="11">The sum z₁ + z₂  is obtained </tspan>
                    <tspan x="151" y="24">by vector addition in the </tspan>
                    <tspan x="151" y="37">complex plane.</tspan>
                </text>
            </g>
        </g>
    </g>
</svg>