<?xml version="1.0" encoding="UTF-8"?>
<svg width="305px" height="248px" viewBox="0 0 305 248" version="1.1" xmlns="http://www.w3.org/2000/svg" xmlns:xlink="http://www.w3.org/1999/xlink">
    <g stroke="none" stroke-width="1" fill="none" fill-rule="evenodd">
        <g transform="translate(1.000000, 1.000000)">
            <text font-family="Geist-Regular, Geist" font-size="11" font-weight="normal" line-spacing="13" fill="#636363">
                <tspan x="83" y="205.5">Squaring a complex number produces </tspan>
                <tspan x="83" y="218.5">a new vector whose modulus is </tspan>
                <tspan x="83" y="231.5">squared and whose angle is doubled.</tspan>
            </text>
            <text font-size="14" font-weight="normal" fill="#333333">
                <tspan x="206.5" y="106.5">z=re</tspan>
            </text>
            <text font-size="8" font-weight="normal" fill="#333333">
                <tspan x="236.5" y="101.5">iθ</tspan>
            </text>
            <text font-size="14" font-weight="normal" letter-spacing="5.50666667" fill="#333333">
                <tspan x="83.5" y="48.5">z</tspan>
                <tspan x="95.3367448" y="48.5" letter-spacing="0.466666667">=</tspan>
                <tspan x="105.38056" y="48.5" letter-spacing="5.04">r</tspan>
                <tspan x="115.287747" y="48.5">e</tspan>
            </text>
            <text font-size="8" font-weight="normal" fill="#333333">
                <tspan x="123" y="43">2iθ</tspan>
            </text>
            <text font-size="8" font-weight="normal" fill="#333333">
                <tspan x="90" y="43">2</tspan>
            </text>
            <text font-size="8" font-weight="normal" fill="#333333">
                <tspan x="111" y="43">2</tspan>
            </text>
            <path d="M146.882134,-0.323007375 L146.935788,-0.24513062 L151.435788,7.75486938 C151.57117,7.99554832 151.48581,8.30040587 151.245131,8.43578777 C151.031194,8.55612724 150.766548,8.50205326 150.615296,8.31951464 L150.564212,8.24513062 L147,1.908 L147,166.5 C147,166.776142 146.776142,167 146.5,167 C146.25454,167 146.050392,166.823125 146.008056,166.589876 L146,166.5 L146,1.908 L142.435788,8.24513062 C142.315448,8.45906745 142.061202,8.55028324 141.837152,8.47282918 L141.754869,8.43578777 C141.540933,8.3154483 141.449717,8.06120215 141.527171,7.83715217 L141.564212,7.75486938 L146.064212,-0.24513062 C146.239435,-0.55663764 146.665161,-0.582596558 146.882134,-0.323007375 Z" fill="#BABABA" fill-rule="nonzero"></path>
            <path d="M198.985707,108.736961 L199.054422,108.795449 L204.659142,114.503961 C204.852605,114.701006 204.849701,115.017575 204.652655,115.211038 C204.477504,115.383005 204.207914,115.399817 204.014293,115.263039 L203.945578,115.204551 L201.493,112.707 L146.850295,166.356782 C146.65325,166.550245 146.336681,166.54734 146.143218,166.350295 C145.971251,166.175144 145.954439,165.905554 146.091217,165.711932 L146.149705,165.643218 L200.792,111.993 L198.340858,109.496039 C198.147395,109.298994 198.150299,108.982425 198.347345,108.788962 C198.522496,108.616995 198.792086,108.600183 198.985707,108.736961 Z" fill="#333333" fill-rule="nonzero"></path>
            <path d="M150.5,27 C150.776142,27 151,27.2238576 151,27.5 C151,27.7454599 150.823125,27.9496084 150.589876,27.9919443 L150.5,28 L147,28 L147,166 C147,166.276142 146.776142,166.5 146.5,166.5 C146.25454,166.5 146.050392,166.323125 146.008056,166.089876 L146,166 L146,28 L142.5,28 C142.223858,28 142,27.7761424 142,27.5 C142,27.2545401 142.176875,27.0503916 142.410124,27.0080557 L142.5,27 L150.5,27 Z" fill="#333333" fill-rule="nonzero"></path>
            <path d="M295.162848,161.527171 L295.245131,161.564212 L303.245131,166.064212 C303.556638,166.239435 303.582597,166.665161 303.323007,166.882134 L303.245131,166.935788 L295.245131,171.435788 C295.004452,171.57117 294.699594,171.48581 294.564212,171.245131 C294.443873,171.031194 294.497947,170.766548 294.680485,170.615296 L294.754869,170.564212 L301.091,167 L0,167 C-0.276142375,167 -0.5,166.776142 -0.5,166.5 C-0.5,166.25454 -0.323124839,166.050392 -0.0898756324,166.008056 L0,166 L301.091,166 L294.754869,162.435788 C294.540933,162.315448 294.449717,162.061202 294.527171,161.837152 L294.564212,161.754869 C294.684552,161.540933 294.938798,161.449717 295.162848,161.527171 Z" fill="#BABABA" fill-rule="nonzero"></path>
            <path d="M184.839242,162.086575 C185.11445,162.063883 185.355946,162.268588 185.378638,162.543797 C185.459398,163.523245 185.5,164.509192 185.5,165.5 C185.5,165.866534 185.494443,166.232423 185.483351,166.597586 C185.474967,166.873601 185.244415,167.090559 184.9684,167.082175 C184.692385,167.07379 184.475428,166.843239 184.483812,166.567224 C184.494597,166.212178 184.5,165.856411 184.5,165.5 C184.5,164.536626 184.460527,163.578094 184.38202,162.625972 C184.359328,162.350763 184.564033,162.109267 184.839242,162.086575 Z M183.792184,154.590907 C184.206903,155.8765 184.548054,157.18714 184.813462,158.517726 C184.867479,158.788533 184.691736,159.051856 184.420928,159.105873 C184.150121,159.15989 183.886798,158.984147 183.832781,158.71334 C183.574896,157.420469 183.243426,156.147022 182.840478,154.897917 C182.755699,154.635111 182.900019,154.353338 183.162825,154.268559 C183.425632,154.18378 183.707405,154.328101 183.792184,154.590907 Z M180.429726,147.206443 C181.128042,148.365573 181.759661,149.563968 182.32108,150.796086 C182.435579,151.047372 182.324692,151.343899 182.073406,151.458398 C181.82212,151.572898 181.525593,151.46201 181.411094,151.210725 C180.865552,150.013453 180.251775,148.84891 179.57316,147.72248 C179.43066,147.485946 179.50689,147.178678 179.743424,147.036179 C179.979959,146.893679 180.287226,146.969909 180.429726,147.206443 Z M174.768088,140.092401 L174.845608,140.117213 L183.3431,143.587464 C183.598745,143.691866 183.721353,143.983742 183.616951,144.239388 C183.524149,144.466629 183.283219,144.588753 183.051277,144.539761 L182.965026,144.513239 L176.234,141.763 L177.960304,143.939745 C178.131934,144.156072 178.0957,144.470574 177.879373,144.642205 C177.687082,144.794765 177.417221,144.783087 177.239084,144.626674 L177.176913,144.561274 L175.451,142.386 L176.59729,149.56529 C176.635985,149.807681 176.493504,150.03716 176.269845,150.115736 L176.182363,150.137859 C175.939972,150.176554 175.710493,150.034074 175.631917,149.810415 L175.609793,149.722933 L174.162823,140.658923 C174.105749,140.301401 174.432163,140.013659 174.768088,140.092401 Z" fill="#ADADAD" fill-rule="nonzero"></path>
            <path d="M155.211633,101.250051 C155.318638,101.470959 155.248449,101.731795 155.056986,101.871577 L154.979611,101.918007 L147.518,105.531 L154.481543,110.031158 C154.687704,110.16438 154.763169,110.423738 154.672132,110.642621 L154.630118,110.722479 C154.496896,110.92864 154.237538,111.004106 154.018655,110.913068 L153.938797,110.871055 L146.229567,105.889311 C145.929382,105.69533 145.929558,105.268814 146.201954,105.068154 L146.282972,105.019373 L154.543677,101.018029 C154.792199,100.897649 155.091254,101.001529 155.211633,101.250051 Z M157.324243,105.885605 L157.414173,105.893032 C158.741496,106.123331 160.058267,106.397626 161.362823,106.71527 C161.631127,106.780598 161.79567,107.051061 161.730342,107.319364 C161.665013,107.587668 161.39455,107.752211 161.126247,107.686883 C159.843389,107.374522 158.548505,107.104787 157.243221,106.878311 C156.971143,106.831104 156.78885,106.572273 156.836057,106.300196 C156.872774,106.08858 157.03751,105.931278 157.236927,105.894028 L157.324243,105.885605 Z M149.397561,105.146246 L153.390045,105.391345 C153.665668,105.408266 153.875388,105.64542 153.858468,105.921043 C153.843427,106.166042 153.654375,106.358969 153.41897,106.386933 L153.32877,106.389466 L149.336286,106.144367 C149.060663,106.127446 148.850942,105.890292 148.867863,105.614669 C148.884784,105.339045 149.121937,105.129325 149.397561,105.146246 Z" fill="#ADADAD" fill-rule="nonzero"></path>
            <text font-family="FranklinGothic-Book, Franklin Gothic Book" font-size="12" font-weight="normal" fill="#636363">
                <tspan x="190.049247" y="154.255647">θ</tspan>
            </text>
            <text font-family="FranklinGothic-Book, Franklin Gothic Book" font-size="12" font-weight="normal" fill="#636363">
                <tspan x="164.049247" y="114.255647">2θ</tspan>
            </text>
            <line x1="163.5" y1="191" x2="163.5" y2="159" stroke="#BABABA" stroke-linecap="round"></line>
        </g>
        <path d="M207.971854,168.355552 C207.990573,167.739326 208,167.120764 208,166.5 C208,150.122915 201.438581,135.278331 190.801147,124.451652 C187.830664,121.428322 184.542335,118.718307 180.990281,116.375727" stroke="#ADADAD" stroke-linecap="round" stroke-linejoin="round" stroke-dasharray="4"></path>
    </g>
</svg>