<?xml version="1.0" encoding="UTF-8"?>
<svg width="305px" height="194px" viewBox="0 0 305 194" version="1.1" xmlns="http://www.w3.org/2000/svg" xmlns:xlink="http://www.w3.org/1999/xlink">
    <title>Group 6</title>
    <g stroke="none" stroke-width="1" fill="none" fill-rule="evenodd">
        <g transform="translate(1.000000, 0.000000)">
            <path d="M146.882134,6.67699263 L146.935788,6.75486938 L151.435788,14.7548694 C151.57117,14.9955483 151.48581,15.3004059 151.245131,15.4357878 C151.031194,15.5561272 150.766548,15.5020533 150.615296,15.3195146 L150.564212,15.2451306 L147,8.908 L147,193.5 C147,193.776142 146.776142,194 146.5,194 C146.25454,194 146.050392,193.823125 146.008056,193.589876 L146,193.5 L146,8.908 L142.435788,15.2451306 C142.315448,15.4590675 142.061202,15.5502832 141.837152,15.4728292 L141.754869,15.4357878 C141.540933,15.3154483 141.449717,15.0612021 141.527171,14.8371522 L141.564212,14.7548694 L146.064212,6.75486938 C146.239435,6.44336236 146.665161,6.41740344 146.882134,6.67699263 Z" fill="#BABABA" fill-rule="nonzero"></path>
            <path d="M295.162848,131.527171 L295.245131,131.564212 L303.245131,136.064212 C303.556638,136.239435 303.582597,136.665161 303.323007,136.882134 L303.245131,136.935788 L295.245131,141.435788 C295.004452,141.57117 294.699594,141.48581 294.564212,141.245131 C294.443873,141.031194 294.497947,140.766548 294.680485,140.615296 L294.754869,140.564212 L301.091,137 L0,137 C-0.276142375,137 -0.5,136.776142 -0.5,136.5 C-0.5,136.25454 -0.323124839,136.050392 -0.0898756324,136.008056 L0,136 L301.091,136 L294.754869,132.435788 C294.540933,132.315448 294.449717,132.061202 294.527171,131.837152 L294.564212,131.754869 C294.684552,131.540933 294.938798,131.449717 295.162848,131.527171 Z" fill="#BABABA" fill-rule="nonzero"></path>
            <text font-size="12" font-weight="normal" fill="#333333">
                <tspan x="209.5" y="56">z = P(a,b) = P(r, θ)</tspan>
            </text>
            <text font-size="15" font-weight="normal" fill="#333333">
                <tspan x="194.5" y="94">r</tspan>
            </text>
            <text font-size="14" font-style="italic" font-weight="normal" fill="#BABABA">
                <tspan x="132" y="152">O</tspan>
            </text>
            <text font-size="14" font-weight="normal" fill="#BABABA">
                <tspan x="116.5" y="14">Im</tspan>
            </text>
            <text font-size="14" font-weight="normal" fill="#BABABA">
                <tspan x="285.5" y="158">Re</tspan>
            </text>
            <text font-size="12" font-weight="normal" fill="#333333">
                <tspan x="242.5" y="158">a</tspan>
            </text>
            <text font-size="12" font-weight="normal" fill="#333333">
                <tspan x="124" y="73">b</tspan>
            </text>
            <line x1="147" y1="136" x2="247.683486" y2="68.5" stroke="#333333" stroke-width="2" stroke-linecap="round" stroke-linejoin="round" stroke-dasharray="1"></line>
            <line x1="247.5" y1="134.5" x2="247.683486" y2="66.5" stroke="#BABABA" stroke-linecap="round" stroke-linejoin="round" stroke-dasharray="4"></line>
            <line x1="246.5" y1="68.5" x2="147.5" y2="68.5" stroke="#BABABA" stroke-linecap="round" stroke-linejoin="round" stroke-dasharray="4"></line>
            <line x1="180.5" y1="131.5" x2="180.5" y2="142.5" stroke="#BABABA" stroke-linecap="round" stroke-linejoin="round"></line>
            <line x1="214.5" y1="131.5" x2="214.5" y2="142.5" stroke="#BABABA" stroke-linecap="round" stroke-linejoin="round"></line>
            <line x1="247.5" y1="131.5" x2="247.5" y2="142.5" stroke="#BABABA" stroke-linecap="round" stroke-linejoin="round"></line>
            <line x1="282.5" y1="131.5" x2="282.5" y2="142.5" stroke="#BABABA" stroke-linecap="round" stroke-linejoin="round"></line>
            <line x1="45.5" y1="131.5" x2="45.5" y2="142.5" stroke="#BABABA" stroke-linecap="round" stroke-linejoin="round"></line>
            <line x1="79.5" y1="131" x2="79.5" y2="142" stroke="#BABABA" stroke-linecap="round" stroke-linejoin="round"></line>
            <line x1="113.5" y1="131.5" x2="113.5" y2="142.5" stroke="#BABABA" stroke-linecap="round" stroke-linejoin="round"></line>
            <line x1="145.5" y1="63" x2="145.5" y2="74" stroke="#BABABA" stroke-linecap="round" stroke-linejoin="round" transform="translate(145.500000, 68.500000) rotate(90.000000) translate(-145.500000, -68.500000) "></line>
            <line x1="145.963303" y1="96.9633028" x2="145.963303" y2="108.463303" stroke="#BABABA" stroke-linecap="round" stroke-linejoin="round" transform="translate(145.963303, 102.500000) rotate(90.000000) translate(-145.963303, -102.500000) "></line>
            <line x1="145.5" y1="165" x2="145.5" y2="176" stroke="#BABABA" stroke-linecap="round" stroke-linejoin="round" transform="translate(145.500000, 170.500000) rotate(90.000000) translate(-145.500000, -170.500000) "></line>
            <line x1="145.5" y1="29" x2="145.5" y2="40" stroke="#BABABA" stroke-linecap="round" stroke-linejoin="round" transform="translate(145.500000, 34.500000) rotate(90.000000) translate(-145.500000, -34.500000) "></line>
            <text font-family="Helvetica" font-size="14" font-weight="normal" fill="#333333">
                <tspan x="228.049247" y="116.755647">θ</tspan>
            </text>
            <path d="M211.064356,99.8022698 L211.884713,100.144524 L220.355824,103.678683 L219.970788,104.601585 L213.26,101.801 L216.995274,106.584948 C221.786463,113.856951 224.424831,122.298704 224.544955,131.124584 L224.549247,131.755647 L223.549247,131.755647 C223.549247,123.109637 221.080743,114.822467 216.521084,107.68782 L216.183724,107.167841 L212.473,102.419 L213.565177,109.605527 L212.576522,109.755727 L211.197867,100.681075 L211.064356,99.8022698 Z" fill="#999999" fill-rule="nonzero"></path>
            <circle fill="#333333" cx="247.5" cy="68.5" r="3"></circle>
        </g>
    </g>
</svg>