<?xml version="1.0" encoding="UTF-8"?>
<svg width="397px" height="270px" viewBox="0 0 397 270" version="1.1" xmlns="http://www.w3.org/2000/svg" xmlns:xlink="http://www.w3.org/1999/xlink">
    <g stroke="none" stroke-width="1" fill="none" fill-rule="evenodd">
        <g transform="translate(-7.000000, -64.000000)">
            <g transform="translate(7.000000, 64.500000)">
                <path d="M267.992773,139.612701 C267.994798,139.52751 267.996406,139.441239 267.997595,139.353877 C267.999196,139.236109 268,148.477309 268,139 C268,129.522691 262.82982,121.252943 255.156099,116.857393 L243,138.5" fill="#E3E3E3"></path>
                <path d="M242.5,5.48013557 L242.935788,6.25486938 L247.435788,14.2548694 L247.680918,14.6906571 L246.809343,15.1809184 L246.564212,14.7451306 L243,8.408 L243,269.5 L242,269.5 L242,8.408 L238.435788,14.7451306 L238.190657,15.1809184 L237.319082,14.6906571 L237.564212,14.2548694 L242.064212,6.25486938 L242.5,5.48013557 Z" fill="#BABABA" fill-rule="nonzero"></path>
                <path d="M384.809495,133.819082 L385.245283,134.064212 L393.245283,138.564212 L394.020016,139 L393.245283,139.435788 L385.245283,143.935788 L384.809495,144.180918 L384.319234,143.309343 L384.755021,143.064212 L391.092,139.5 L91,139.5 L91,138.5 L391.092,138.5 L384.755021,134.935788 L384.319234,134.690657 L384.809495,133.819082 Z" fill="#BABABA" fill-rule="nonzero"></path>
                <path d="M287.5,138 L287.5,107.5 M287.5,91.5 L287.5,57" stroke="#979797" stroke-linecap="square" stroke-dasharray="4"></path>
                <line x1="287.5" y1="56" x2="242" y2="56" stroke="#979797" stroke-linecap="square" stroke-dasharray="4"></line>
                <text font-family="Geist-Italic, Geist" font-size="14" font-style="italic" font-weight="normal" fill="#BABABA">
                    <tspan x="228" y="152.5">O</tspan>
                </text>
                <text font-size="14" font-weight="normal" fill="#BABABA">
                    <tspan x="217.5" y="14">Im</tspan>
                </text>
                <text font-size="14" font-weight="normal" fill="#BABABA">
                    <tspan x="378.5" y="159">Re</tspan>
                </text>
                <text font-size="14" font-weight="normal" fill="#333333">
                    <tspan x="287" y="150.5">x</tspan>
                </text>
                <text font-size="12" font-weight="normal" fill="#333333">
                    <tspan x="341" y="150.5">1</tspan>
                </text>
                <text font-size="12" font-weight="normal" fill="#333333">
                    <tspan x="236" y="39.5">i</tspan>
                </text>
                <text font-size="8" font-weight="normal" fill="#333333">
                    <tspan x="295" y="151.5">p</tspan>
                </text>
                <path d="M148.099619,128.266723 C147.703468,131.789768 147.5,135.371123 147.5,139 C147.5,191.467051 190.032949,234 242.5,234 C294.967051,234 337.5,191.467051 337.5,139 C337.5,99.5930303 313.506243,65.7901028 279.330881,51.4033706 M247.092064,44.109037 C245.570478,44.0366202 244.039516,44 242.5,44 C218.871651,44 197.258056,52.6261885 180.636651,66.9011298" stroke="#BABABA" stroke-linecap="round"></path>
                <text font-size="14" font-weight="normal" fill="#333333">
                    <tspan x="259" y="131.5">θ</tspan>
                </text>
                <text font-size="12" font-weight="normal" fill="#333333">
                    <tspan x="280" y="104.5">sinθ</tspan>
                </text>
                <text font-size="12" font-weight="normal" fill="#333333">
                    <tspan x="251" y="49.5">cosθ</tspan>
                </text>
                <path d="M288.231203,55.6675851 L288.240521,56.5564251 L288.336741,65.7347006 L288.341982,66.2346732 L287.342037,66.245156 L287.336796,65.7451835 L287.26,58.475 L284.339531,63.7983673 L242.938333,139.240549 L242.697785,139.678882 L241.821118,139.197785 L242.061667,138.759451 L283.462864,63.3172696 L286.384,57.993 L280.210875,61.8346169 L279.78632,62.0987259 L279.258102,61.249617 L279.682657,60.9855081 L287.47644,56.1371121 L288.231203,55.6675851 Z" fill="#333333" fill-rule="nonzero"></path>
                <circle fill="#333333" cx="242" cy="56.5" r="2.5"></circle>
                <circle fill="#333333" cx="242" cy="43.5" r="2.5"></circle>
                <circle fill="#333333" cx="242.5" cy="139" r="2.5"></circle>
                <circle fill="#333333" cx="337.5" cy="139" r="2.5"></circle>
                <text font-size="14" font-weight="normal" fill="#333333">
                    <tspan x="224" y="57.5">y</tspan>
                    <tspan x="231.518" y="57.5">ₚ</tspan>
                </text>
                <text font-size="11" font-weight="normal" line-spacing="13" fill="#636363">
                    <tspan x="2.876" y="79.8620148">Geometric interpretation of Euler’s </tspan>
                    <tspan x="2.755" y="92.8620148">formula on the complex unit circle, </tspan>
                    <tspan x="2.216" y="105.862015">relating circular motion to sine and </tspan>
                    <tspan x="84.1" y="118.862015">cosine projections.</tspan>
                </text>
                <line x1="187.5" y1="95" x2="232.5" y2="95" stroke="#BABABA" stroke-linecap="round"></line>
            </g>
        </g>
    </g>
</svg>