<?xml version="1.0" encoding="UTF-8"?>
<svg width="305px" height="231px" viewBox="0 0 305 231" version="1.1" xmlns="http://www.w3.org/2000/svg" xmlns:xlink="http://www.w3.org/1999/xlink">
    <g stroke="none" stroke-width="1" fill="none" fill-rule="evenodd">
        <g transform="translate(1.000000, 0.000000)">
            <line x1="67.5" y1="80.5" x2="67.5" y2="48.5" stroke="#BABABA" stroke-linecap="round"></line>
            <text font-size="11" font-weight="normal" fill="#636363">
                <tspan x="13" y="11">This relation is not a function because two distinct </tspan>
                <tspan x="13" y="25">elements of the domain are associated with the same </tspan>
                <tspan x="13" y="39">element of the codomain, y₁.</tspan>
            </text>
            <text font-size="12" font-weight="normal" fill="#333333">
                <tspan x="20.5" y="86.2609489">A</tspan>
            </text>
            <text font-size="12" font-weight="normal" fill="#333333">
                <tspan x="202.5" y="81.2609489">B</tspan>
            </text>
            <path d="M64.498808,113.999915 L64.5886873,114.007928 L229.262523,143.687515 L235.2,144.757 L229.598569,140.126442 C229.40937,139.970064 229.364697,139.70367 229.480664,139.496911 L229.531713,139.422503 C229.688091,139.233304 229.954485,139.188631 230.161244,139.304598 L230.235652,139.355647 L237.310613,145.20329 C237.588027,145.43258 237.53542,145.860501 237.235974,146.025531 L237.156018,146.061045 L228.484684,149.070693 C228.223809,149.161238 227.938926,149.023157 227.848381,148.762281 C227.767897,148.530391 227.868055,148.279533 228.074527,148.163057 L228.156793,148.125978 L235.025,145.742 L229.085148,144.671658 L64.4113127,114.992072 C64.139549,114.943091 63.9589476,114.683076 64.0079283,114.411313 C64.0460244,114.199941 64.211783,114.043717 64.4114391,114.007768 L64.498808,113.999915 Z" fill="#979797" fill-rule="nonzero"></path>
            <line x1="64.5" y1="131.5" x2="235.5" y2="145.5" stroke="#979797" stroke-linecap="round" stroke-linejoin="round"></line>
            <path d="M17.3810485,91.1616043 C6.59973791,105.907444 0,125.71791 0,147.5 C0,193.063492 28.8776336,230 64.5,230 C100.122366,230 129,193.063492 129,147.5 C129,101.936508 100.122366,65 64.5,65 C52.3293577,65 40.9460263,69.3115884 31.2327003,76.8057372" stroke="#333333" stroke-linecap="round" stroke-linejoin="round"></path>
            <circle fill="#333333" cx="64" cy="114" r="3"></circle>
            <circle fill="#333333" cx="64" cy="131" r="3"></circle>
            <circle fill="#333333" cx="64" cy="153" r="3"></circle>
            <circle fill="#333333" cx="64" cy="180" r="3"></circle>
            <path d="M197.90204,83.3890065 C183.320048,98.5146424 174,121.615173 174,147.5 C174,193.063492 202.877634,230 238.5,230 C274.122366,230 303,193.063492 303,147.5 C303,101.936508 274.122366,65 238.5,65 C229.937533,65 221.764754,67.1340673 214.289037,71.0090494" stroke="#BABABA" stroke-linecap="round" stroke-linejoin="round"></path>
            <circle fill="#333333" transform="translate(244.000000, 180.000000) scale(1, -1) translate(-244.000000, -180.000000) " cx="244" cy="180" r="3"></circle>
            <circle fill="#333333" transform="translate(244.000000, 163.000000) scale(1, -1) translate(-244.000000, -163.000000) " cx="244" cy="163" r="3"></circle>
            <circle fill="#333333" transform="translate(244.000000, 146.000000) scale(1, -1) translate(-244.000000, -146.000000) " cx="244" cy="146" r="3"></circle>
            <circle fill="#333333" transform="translate(244.000000, 105.000000) scale(1, -1) translate(-244.000000, -105.000000) " cx="244" cy="105" r="3"></circle>
            <text font-size="13" font-weight="normal" fill="#333333">
                <tspan x="253" y="110">y₀</tspan>
            </text>
            <text font-size="13" font-weight="normal" fill="#333333">
                <tspan x="253" y="149">y₁</tspan>
            </text>
            <text font-size="13" font-weight="normal" fill="#333333">
                <tspan x="253" y="167">y₂</tspan>
            </text>
            <text font-size="13" font-weight="normal" fill="#333333">
                <tspan x="253" y="183">yₙ</tspan>
            </text>
            <text font-size="13" font-weight="normal" fill="#333333">
                <tspan x="42" y="114">x₀</tspan>
            </text>
            <text font-size="13" font-weight="normal" fill="#333333">
                <tspan x="42" y="132">x₁</tspan>
            </text>
            <text font-size="13" font-weight="normal" fill="#333333">
                <tspan x="42" y="152">x₂</tspan>
            </text>
            <text font-size="13" font-weight="normal" fill="#333333">
                <tspan x="42" y="181">xₙ</tspan>
            </text>
        </g>
    </g>
</svg>