<?xml version="1.0" encoding="UTF-8"?>
<svg width="141px" height="51px" viewBox="0 0 141 51" version="1.1" xmlns="http://www.w3.org/2000/svg" xmlns:xlink="http://www.w3.org/1999/xlink">
    <title>algebrica</title>
    <g id="lissajous.svg" stroke="none" stroke-width="1" fill="none" fill-rule="evenodd">
        <path d="M7.832,24.448 C10.072,24.448 11.8106667,23.6693333 13.048,22.112 L13.048,22.112 L13.048,24 L17.176,24 L17.176,8 L13.048,8 L13.048,9.888 C11.8106667,8.33066667 10.072,7.552 7.832,7.552 C5.69866667,7.552 3.864,8.37333333 2.328,10.016 C0.813333333,11.6586667 0.056,13.6533333 0.056,16 C0.056,18.368 0.813333333,20.3733333 2.328,22.016 C3.864,23.6373333 5.69866667,24.448 7.832,24.448 Z M8.6,20.512 C7.32,20.512 6.264,20.096 5.432,19.264 C4.6,18.4106667 4.184,17.3226667 4.184,16 C4.184,14.6773333 4.6,13.6 5.432,12.768 C6.264,11.9146667 7.32,11.488 8.6,11.488 C9.88,11.488 10.936,11.9146667 11.768,12.768 C12.6213333,13.6 13.048,14.6773333 13.048,16 C13.048,17.3226667 12.6213333,18.4106667 11.768,19.264 C10.936,20.096 9.88,20.512 8.6,20.512 Z M25.048,24 L25.048,0.64 L20.92,0.64 L20.92,24 L25.048,24 Z M36.76,30.848 C39.064,30.848 41.0266667,30.1973333 42.648,28.896 C44.2906667,27.5733333 45.112,25.6853333 45.112,23.232 L45.112,23.232 L45.112,8 L41.08,8 L41.08,9.984 C39.864,8.36266667 38.1573333,7.552 35.96,7.552 C33.72,7.552 31.832,8.352 30.296,9.952 C28.76,11.552 27.992,13.4826667 27.992,15.744 C27.992,18.0053333 28.7493333,19.9466667 30.264,21.568 C31.8,23.1466667 33.6986667,23.936 35.96,23.936 C38.1573333,23.936 39.864,23.1253333 41.08,21.504 L41.08,21.504 L41.08,23.232 C41.08,24.512 40.7066667,25.488 39.96,26.16 C39.2133333,26.832 38.1893333,27.168 36.888,27.168 C34.8826667,27.168 33.4853333,26.4213333 32.696,24.928 L32.696,24.928 L29.176,26.944 C29.88,28.224 30.888,29.1946667 32.2,29.856 C33.512,30.5173333 35.032,30.848 36.76,30.848 Z M36.6,20.128 C35.96,20.128 35.3626667,20.0213333 34.808,19.808 C34.2533333,19.5946667 33.7786667,19.2906667 33.384,18.896 C32.9893333,18.5013333 32.68,18.0373333 32.456,17.504 C32.232,16.9706667 32.12,16.384 32.12,15.744 C32.12,14.4853333 32.536,13.4506667 33.368,12.64 C34.2213333,11.808 35.2986667,11.392 36.6,11.392 C37.9013333,11.392 38.968,11.808 39.8,12.64 C40.6533333,13.4293333 41.08,14.464 41.08,15.744 C41.08,16.384 40.968,16.9706667 40.744,17.504 C40.52,18.0373333 40.2106667,18.5013333 39.816,18.896 C39.4213333,19.2906667 38.9466667,19.5946667 38.392,19.808 C37.8373333,20.0213333 37.24,20.128 36.6,20.128 Z M56.792,24.448 C59.864,24.448 62.1893333,23.3066667 63.768,21.024 L63.768,21.024 L60.44,19.104 C59.6293333,20.1706667 58.4346667,20.704 56.856,20.704 C54.3813333,20.704 52.8773333,19.7013333 52.344,17.696 L52.344,17.696 L64.408,17.696 C64.4506667,17.3973333 64.488,17.1093333 64.52,16.832 C64.552,16.5546667 64.568,16.2773333 64.568,16 C64.568,13.632 63.8,11.6266667 62.264,9.984 C60.7706667,8.36266667 58.84,7.552 56.472,7.552 C53.976,7.552 51.9493333,8.36266667 50.392,9.984 C48.8133333,11.6053333 48.024,13.6106667 48.024,16 C48.024,18.432 48.824,20.448 50.424,22.048 C52.024,23.648 54.1466667,24.448 56.792,24.448 Z M60.44,14.496 L52.28,14.496 C52.5146667,13.472 52.9946667,12.6773333 53.72,12.112 C54.4453333,11.5466667 55.3626667,11.264 56.472,11.264 C57.432,11.264 58.2746667,11.5306667 59,12.064 C59.7253333,12.5973333 60.2053333,13.408 60.44,14.496 L60.44,14.496 Z M76.76,24.448 C78.936,24.448 80.7706667,23.6373333 82.264,22.016 C83.8,20.3946667 84.568,18.3893333 84.568,16 C84.568,13.6533333 83.8,11.6586667 82.264,10.016 C80.7493333,8.37333333 78.9146667,7.552 76.76,7.552 C74.52,7.552 72.792,8.33066667 71.576,9.888 L71.576,9.888 L71.576,1.6 L67.448,1.6 L67.448,24 L71.576,24 L71.576,22.112 C72.792,23.6693333 74.52,24.448 76.76,24.448 Z M75.992,20.512 C74.712,20.512 73.656,20.096 72.824,19.264 C71.992,18.4106667 71.576,17.3226667 71.576,16 C71.576,14.6773333 71.992,13.6 72.824,12.768 C73.656,11.9146667 74.712,11.488 75.992,11.488 C77.272,11.488 78.328,11.9146667 79.16,12.768 C80.0133333,13.6 80.44,14.6773333 80.44,16 C80.44,17.3226667 80.0133333,18.4106667 79.16,19.264 C78.328,20.096 77.272,20.512 75.992,20.512 Z M91.608,24 L91.608,16.352 C91.608,14.816 92.0986667,13.7173333 93.08,13.056 C94.0826667,12.3733333 95.2133333,12.1173333 96.472,12.288 L96.472,12.288 L96.472,7.68 C95.384,7.68 94.3973333,7.936 93.512,8.448 C92.6266667,8.96 91.992,9.728 91.608,10.752 L91.608,10.752 L91.608,8 L87.48,8 L87.48,24 L91.608,24 Z M100.92,6.08 C101.624,6.08 102.226667,5.82933333 102.728,5.328 C103.229333,4.82666667 103.48,4.23466667 103.48,3.552 C103.48,3.21066667 103.410667,2.88533333 103.272,2.576 C103.133333,2.26666667 102.952,1.99466667 102.728,1.76 C102.504,1.52533333 102.232,1.33866667 101.912,1.2 C101.592,1.06133333 101.261333,0.992 100.92,0.992 C100.578667,0.992 100.253333,1.06133333 99.944,1.2 C99.6346667,1.33866667 99.368,1.52533333 99.144,1.76 C98.92,1.99466667 98.7386667,2.26666667 98.6,2.576 C98.4613333,2.88533333 98.392,3.21066667 98.392,3.552 C98.392,4.23466667 98.6426667,4.82666667 99.144,5.328 C99.6453333,5.82933333 100.237333,6.08 100.92,6.08 Z M103,24 L103,8 L98.872,8 L98.872,24 L103,24 Z M114.392,24.448 C115.949333,24.448 117.368,24.0746667 118.648,23.328 C119.928,22.5813333 120.92,21.568 121.624,20.288 L121.624,20.288 L118.04,18.24 C117.72,18.9013333 117.234667,19.4186667 116.584,19.792 C115.933333,20.1653333 115.192,20.352 114.36,20.352 C113.122667,20.352 112.098667,19.9466667 111.288,19.136 C110.477333,18.2826667 110.072,17.2373333 110.072,16 C110.072,15.36 110.178667,14.7733333 110.392,14.24 C110.605333,13.7066667 110.904,13.2426667 111.288,12.848 C111.672,12.4533333 112.125333,12.1493333 112.648,11.936 C113.170667,11.7226667 113.741333,11.616 114.36,11.616 C115.170667,11.616 115.901333,11.808 116.552,12.192 C117.202667,12.576 117.688,13.0986667 118.008,13.76 L118.008,13.76 L121.56,11.68 C120.898667,10.4 119.928,9.392 118.648,8.656 C117.368,7.92 115.949333,7.552 114.392,7.552 C111.981333,7.552 109.965333,8.36266667 108.344,9.984 C106.744,11.6266667 105.944,13.632 105.944,16 C105.944,18.3893333 106.744,20.3946667 108.344,22.016 C109.965333,23.6373333 111.981333,24.448 114.392,24.448 Z M130.872,24.448 C133.112,24.448 134.850667,23.6693333 136.088,22.112 L136.088,22.112 L136.088,24 L140.216,24 L140.216,8 L136.088,8 L136.088,9.888 C134.850667,8.33066667 133.112,7.552 130.872,7.552 C128.738667,7.552 126.904,8.37333333 125.368,10.016 C123.853333,11.6586667 123.096,13.6533333 123.096,16 C123.096,18.368 123.853333,20.3733333 125.368,22.016 C126.904,23.6373333 128.738667,24.448 130.872,24.448 Z M131.64,20.512 C130.36,20.512 129.304,20.096 128.472,19.264 C127.64,18.4106667 127.224,17.3226667 127.224,16 C127.224,14.6773333 127.64,13.6 128.472,12.768 C129.304,11.9146667 130.36,11.488 131.64,11.488 C132.92,11.488 133.976,11.9146667 134.808,12.768 C135.661333,13.6 136.088,14.6773333 136.088,16 C136.088,17.3226667 135.661333,18.4106667 134.808,19.264 C133.976,20.096 132.92,20.512 131.64,20.512 Z" id="algebrica" fill="#929292" fill-rule="nonzero"></path>
    </g>
</svg>